<?xml version="1.0" standalone="no"?>
<!DOCTYPE svg PUBLIC "-//W3C//DTD SVG 20010904//EN"
 "http://www.w3.org/TR/2001/REC-SVG-20010904/DTD/svg10.dtd">
<svg version="1.0" xmlns="http://www.w3.org/2000/svg"
 width="2000.000000pt" height="2250.000000pt" viewBox="0 0 2000.000000 2250.000000"
 preserveAspectRatio="xMidYMid meet">
<metadata>
Created by potrace 1.16, written by Peter Selinger 2001-2019
</metadata>
<g transform="translate(0.000000,2250.000000) scale(0.100000,-0.100000)"
fill="#000000" stroke="none">
<path d="M11737 20478 c-177 -20 -511 -127 -702 -226 -38 -20 -241 -151 -450
-291 -209 -140 -405 -264 -435 -277 -30 -12 -100 -34 -155 -49 -91 -25 -111
-27 -220 -22 -184 7 -319 58 -625 233 -348 199 -519 254 -753 241 -129 -7
-246 -34 -319 -74 -55 -30 -78 -57 -82 -99 -4 -34 -43 -55 -148 -78 -90 -20
-158 -62 -202 -124 -37 -52 -41 -125 -12 -190 10 -23 20 -42 21 -42 2 0 22 9
46 20 80 36 164 25 338 -45 95 -39 191 -111 177 -133 -3 -6 -48 -21 -99 -33
-79 -20 -117 -24 -272 -23 -211 0 -278 11 -685 109 -328 80 -384 88 -537 83
-115 -4 -125 -6 -189 -38 -53 -27 -84 -54 -142 -120 -41 -47 -126 -139 -188
-205 -62 -66 -125 -136 -139 -155 -37 -50 -91 -90 -245 -183 -213 -127 -291
-190 -439 -351 -102 -112 -182 -216 -210 -276 -25 -53 -158 -233 -286 -387
-49 -59 -195 -214 -323 -344 -195 -199 -230 -238 -218 -249 20 -16 66 -5 147
36 77 38 240 146 354 233 105 81 118 81 67 0 -16 -24 -58 -81 -95 -127 -78
-96 -84 -117 -31 -109 65 11 248 132 392 261 58 51 82 66 82 50 0 -4 -13 -49
-30 -101 -16 -51 -30 -98 -30 -103 0 -38 136 43 257 154 39 36 76 66 82 66 8
0 9 -18 5 -55 -5 -39 -3 -55 5 -55 36 0 238 165 338 276 36 41 70 74 75 74 4
0 -12 -41 -38 -91 -52 -106 -64 -174 -28 -173 11 0 69 29 129 65 89 52 135 89
247 198 106 103 138 129 138 113 0 -12 -13 -68 -29 -124 -35 -127 -45 -188
-31 -188 32 0 107 54 193 142 55 55 101 98 103 95 2 -2 0 -28 -6 -57 -14 -72
-13 -80 9 -80 30 0 101 61 198 173 87 99 158 165 168 155 2 -2 -5 -32 -15 -67
-24 -76 -25 -91 -5 -91 44 0 146 76 293 215 57 54 104 96 106 94 3 -2 -1 -41
-7 -86 -6 -46 -8 -86 -5 -89 15 -14 55 13 141 95 92 87 134 121 150 121 8 0 3
-90 -10 -154 -5 -27 -4 -28 22 -22 56 14 167 110 232 201 12 16 25 27 29 23 4
-5 2 -53 -6 -108 -13 -106 -7 -196 15 -226 12 -17 16 -17 40 -4 14 8 60 51
102 97 41 46 81 83 88 83 13 0 66 -116 90 -195 7 -22 16 -40 21 -39 13 1 83
58 84 68 1 18 56 95 68 96 16 0 26 -26 46 -130 10 -47 22 -89 27 -94 22 -24
133 98 192 211 17 35 37 63 42 63 6 0 15 -10 21 -23 52 -108 89 -163 134 -199
l50 -40 15 35 c15 37 45 191 45 233 0 14 6 24 14 24 14 0 66 -47 66 -60 0 -4
26 -25 58 -47 94 -66 275 -123 327 -103 23 9 25 13 19 50 -8 49 3 51 38 6 20
-25 37 -36 60 -38 25 -2 32 -7 30 -20 -1 -9 6 -22 17 -27 11 -6 25 -17 33 -24
14 -14 169 -106 208 -123 14 -7 50 -23 80 -37 30 -14 80 -37 110 -52 71 -34
130 -55 155 -55 12 0 48 -28 85 -66 81 -83 162 -136 248 -165 135 -44 159 -63
185 -150 20 -66 102 -186 153 -225 29 -23 50 -29 102 -32 44 -3 75 -11 92 -24
38 -27 91 -33 129 -14 24 13 34 27 43 61 7 25 15 45 18 45 3 0 19 -19 35 -42
45 -61 100 -98 147 -98 46 0 78 15 78 35 0 11 12 15 48 15 58 0 112 27 131 66
8 16 21 42 28 57 12 22 12 38 4 78 -17 80 -63 149 -121 183 -31 18 -32 18 -30
0 6 -56 -7 -57 -70 -4 -54 45 -106 70 -147 70 -37 0 -57 14 -50 34 17 43 188
119 231 103 6 -3 18 -23 24 -45 7 -22 26 -55 42 -72 17 -18 30 -37 30 -43 0
-5 21 -33 48 -61 45 -48 100 -89 202 -148 48 -28 192 -64 210 -53 6 4 8 20 4
42 -6 31 -5 35 12 30 35 -11 175 -27 230 -27 74 0 141 18 162 44 15 19 25 21
93 18 81 -4 149 15 149 41 0 7 -13 23 -30 35 -58 44 -44 50 128 54 138 3 163
7 210 27 53 24 53 24 47 61 l-6 36 103 18 c189 33 311 80 371 144 l28 29 -68
13 c-37 7 -72 16 -78 20 -5 5 -80 36 -165 70 -85 34 -168 68 -185 75 -32 15
-407 121 -465 131 -19 4 -39 10 -45 14 -5 5 -30 13 -55 20 -25 6 -76 27 -115
44 -38 18 -91 41 -117 51 -27 10 -48 22 -48 26 0 5 -4 9 -9 9 -14 0 -109 59
-156 95 -159 124 -206 165 -326 286 -75 75 -146 140 -158 144 -20 6 -30 25
-12 25 5 0 34 -11 66 -25 31 -14 77 -28 101 -32 56 -7 58 8 9 67 -63 76 -49
77 85 9 54 -28 104 -48 110 -44 18 11 11 53 -16 84 -14 17 -24 35 -22 41 1 5
57 -9 123 -31 66 -22 144 -43 173 -46 l54 -6 -30 59 c-17 33 -51 83 -77 112
-26 29 -44 52 -40 52 3 0 33 -19 67 -41 101 -69 269 -139 332 -139 9 0 -16 31
-56 70 -39 39 -69 73 -66 76 3 2 75 -30 161 -72 112 -55 170 -78 206 -82 41
-4 51 -2 51 11 0 20 -92 147 -203 280 -49 59 -88 110 -85 112 2 2 24 -12 48
-31 119 -94 355 -228 437 -247 20 -5 22 -2 17 21 -4 15 -18 42 -33 61 -68 87
-83 110 -80 120 2 6 46 -16 99 -50 107 -70 165 -98 198 -99 37 0 26 28 -37 88
-65 63 -108 131 -75 118 10 -4 115 -64 233 -133 274 -160 412 -233 440 -233
36 0 13 26 -110 125 -62 49 -119 101 -128 114 -15 23 -15 23 19 16 134 -29
298 -103 541 -242 475 -274 612 -308 1254 -320 l360 -6 -70 55 c-38 30 -92 63
-120 74 l-50 19 130 7 c72 4 168 12 215 18 103 14 264 66 354 115 56 32 66 41
66 64 l0 28 -151 12 c-305 24 -609 87 -919 191 -398 132 -783 325 -1371 686
-667 409 -913 548 -1192 674 -254 115 -346 147 -459 159 -111 13 -239 12 -351
-1z m300 -64 c244 -36 587 -204 1303 -641 534 -325 666 -401 920 -528 518
-260 919 -392 1478 -489 139 -24 256 -47 260 -51 25 -24 -158 -83 -304 -98
-258 -25 -567 47 -1063 249 -113 46 -206 82 -207 81 -6 -6 48 -57 92 -88 66
-45 261 -136 459 -214 251 -99 356 -146 352 -159 -7 -20 -314 -12 -455 13
-158 27 -243 56 -427 146 -223 109 -382 206 -895 545 -592 391 -763 493 -1012
606 -275 125 -494 178 -728 178 -164 -1 -231 -11 -369 -58 -143 -49 -260 -104
-521 -241 -293 -154 -439 -225 -555 -265 -76 -27 -100 -31 -157 -27 -79 5
-118 -1 -118 -17 0 -8 42 -19 114 -30 100 -16 115 -21 126 -42 28 -51 198
-148 306 -175 27 -7 51 -15 54 -19 5 -6 36 -23 135 -71 57 -27 69 -61 25 -67
-37 -5 -50 -22 -16 -22 15 0 59 -7 98 -16 63 -14 84 -27 199 -112 71 -53 128
-101 126 -106 -3 -7 -34 -10 -81 -9 -57 1 -76 -2 -76 -11 0 -8 23 -18 60 -25
103 -20 262 -94 304 -140 24 -27 15 -36 -37 -36 -30 0 -43 -4 -45 -16 -2 -12
16 -21 75 -38 86 -25 150 -50 167 -66 6 -6 43 -30 81 -55 39 -24 121 -77 184
-118 63 -41 139 -85 170 -97 81 -32 111 -47 111 -55 0 -4 15 -13 33 -21 41
-16 355 -147 382 -159 63 -28 146 -60 185 -70 25 -7 62 -20 83 -30 20 -10 79
-24 130 -30 50 -7 97 -15 102 -19 6 -4 36 -14 68 -21 31 -7 57 -16 57 -20 0
-4 36 -18 80 -31 44 -12 80 -26 80 -30 0 -10 -87 -45 -155 -62 -94 -24 -192
-30 -300 -18 -113 12 -304 50 -321 62 -21 17 -229 119 -241 119 -7 0 -13 3
-13 8 0 4 -33 18 -72 32 -40 13 -82 29 -93 36 -36 22 -198 64 -245 63 l-45 -1
35 -9 c90 -25 242 -84 247 -96 8 -21 0 -25 -88 -34 -44 -4 -84 -11 -88 -14 -3
-4 11 -21 32 -38 56 -48 50 -60 -25 -52 -35 3 -88 11 -118 16 -79 15 -82 15
-87 2 -2 -6 16 -25 41 -42 40 -28 86 -79 86 -95 0 -11 -86 -6 -145 9 -41 11
-69 25 -89 46 -27 29 -31 30 -85 23 -124 -15 -342 -95 -390 -143 -19 -19 -33
-21 -134 -22 -136 0 -193 14 -276 70 -42 29 -68 40 -81 36 -11 -4 -20 -11 -20
-17 0 -6 -8 -4 -18 6 -16 14 -33 15 -119 10 -117 -8 -230 12 -288 52 -20 13
-49 24 -64 24 -16 0 -34 7 -41 15 -7 8 -42 24 -77 35 -65 20 -194 77 -203 90
-3 4 -32 20 -65 37 -57 29 -147 85 -190 119 -11 9 -65 45 -120 81 -55 37 -122
85 -150 108 -27 23 -63 50 -79 60 -50 33 -186 179 -176 189 9 9 -4 44 -20 56
-7 6 -50 148 -50 168 0 18 23 15 47 -7 11 -10 35 -27 54 -36 19 -10 44 -27 57
-38 42 -39 42 -6 0 91 -22 52 -38 95 -36 97 2 2 44 -11 93 -29 50 -19 106 -36
127 -39 l36 -5 -30 81 c-38 107 -72 182 -109 238 -51 80 -35 75 85 -25 44 -36
83 -66 88 -66 14 0 8 44 -12 89 -11 24 -19 46 -16 48 2 2 43 -19 92 -46 48
-28 94 -51 101 -51 9 0 -15 56 -61 147 -41 81 -73 149 -72 151 9 8 220 -43
285 -69 41 -16 76 -28 78 -25 11 11 -33 68 -112 146 -48 47 -93 97 -101 112
l-14 28 106 -7 c75 -4 106 -3 103 5 -6 16 -136 149 -170 173 -49 35 -38 46 59
53 256 20 450 90 712 258 208 132 469 292 570 348 260 145 542 239 800 269
111 13 120 12 237 -5z m-3389 -385 c101 -25 236 -92 476 -232 110 -65 248
-141 308 -169 98 -48 108 -55 103 -75 -4 -19 6 -31 67 -77 96 -70 117 -94 98
-107 -25 -15 -99 2 -188 42 -46 22 -87 39 -90 39 -4 0 30 -37 74 -82 114 -117
214 -229 214 -239 0 -15 -54 -10 -121 10 -35 11 -96 29 -136 39 l-72 19 16
-31 c9 -17 39 -65 68 -107 56 -83 82 -136 71 -147 -4 -3 -28 5 -53 18 -42 22
-108 84 -181 170 -51 59 -48 24 4 -51 71 -101 114 -172 114 -187 0 -8 -38 21
-84 65 -83 77 -191 152 -203 140 -3 -4 31 -73 75 -154 77 -142 123 -255 109
-269 -12 -12 -91 25 -182 86 -49 33 -92 55 -93 50 -2 -6 14 -39 37 -73 44 -68
75 -136 67 -145 -12 -12 -93 38 -181 111 -44 36 -63 34 -31 -3 14 -17 32 -54
41 -82 16 -55 20 -132 7 -126 -5 2 -36 23 -69 48 -52 39 -63 52 -78 100 -60
188 -209 402 -459 658 l-149 152 24 26 c58 62 9 161 -143 291 -49 42 -91 86
-94 99 -9 34 13 90 47 118 48 41 185 83 319 100 60 7 190 -5 268 -25z m3120
-113 c17 -9 41 -33 52 -54 20 -36 21 -36 16 -7 -3 17 -8 42 -12 58 -6 24 -4
27 19 27 50 0 154 -40 228 -89 41 -27 140 -107 220 -177 149 -131 249 -204
280 -204 10 0 21 -4 24 -10 21 -34 -81 9 -359 150 -174 88 -322 160 -331 160
-25 0 -17 -16 33 -62 26 -25 76 -71 111 -104 66 -61 91 -99 91 -134 0 -26 -14
-25 -102 6 -100 36 -262 121 -383 199 l-30 20 20 -26 c11 -15 41 -52 68 -82
79 -91 58 -91 -78 -2 -54 36 -102 65 -106 65 -25 0 -12 -23 34 -57 150 -114
268 -236 248 -256 -12 -12 -89 6 -140 32 -20 11 -83 54 -141 96 -97 71 -140
97 -148 90 -8 -7 33 -70 76 -118 95 -104 131 -167 113 -196 -12 -18 -103 14
-248 89 -122 62 -151 67 -94 16 31 -28 83 -113 79 -129 -2 -11 -33 -3 -133 35
-140 53 -212 74 -222 65 -3 -4 17 -47 46 -97 28 -49 51 -93 51 -96 0 -16 -93
9 -171 45 -48 23 -91 41 -95 41 -5 0 16 -25 46 -55 l54 -55 -32 0 c-42 0 -209
53 -297 95 -84 40 -120 74 -110 104 6 21 70 71 91 71 9 0 60 -35 157 -110 50
-39 49 -15 -2 54 -28 38 -51 76 -51 86 0 21 88 70 127 70 15 0 45 -11 66 -25
46 -32 47 -19 2 35 -19 23 -35 46 -35 50 0 15 63 56 100 66 24 7 57 6 105 -2
99 -18 104 -17 68 12 -18 14 -33 31 -33 38 0 7 26 25 59 40 54 26 61 28 111
17 29 -6 73 -20 98 -31 l44 -20 -17 28 c-10 15 -24 36 -32 47 -20 29 -16 69
10 93 32 30 150 83 232 104 82 21 176 18 223 -6z m507 -74 c28 -9 127 -59 220
-111 94 -51 198 -109 233 -128 59 -32 78 -53 48 -53 -25 0 -200 48 -271 75
-156 59 -292 153 -307 213 -7 27 6 28 77 4z m-4259 -52 c127 -72 262 -288 212
-338 -20 -20 -43 -14 -135 34 l-88 45 90 -6 c50 -4 87 -4 84 0 -17 17 -125 36
-229 42 -124 6 -202 -5 -264 -36 l-36 -19 -7 27 c-4 14 -7 47 -7 72 1 92 66
152 205 189 99 26 116 25 175 -10z m4779 -292 c178 -58 466 -231 601 -362 77
-74 89 -96 52 -96 -39 0 -101 38 -198 121 -98 84 -167 135 -175 128 -6 -6 133
-150 274 -282 102 -96 120 -117 100 -117 -62 0 -181 78 -424 279 -155 129
-211 168 -222 157 -3 -3 17 -36 45 -73 55 -74 142 -212 142 -225 0 -14 -44 -8
-89 12 -48 22 -94 57 -193 145 -68 62 -148 114 -148 97 0 -5 43 -58 96 -118
88 -100 134 -167 134 -194 0 -19 -55 -10 -119 20 -35 17 -118 68 -185 114
-138 95 -236 152 -236 138 0 -5 52 -65 116 -133 64 -68 135 -150 159 -182 39
-52 64 -111 52 -123 -9 -10 -123 43 -207 96 -184 115 -215 133 -267 151 l-54
18 20 -27 c21 -29 176 -181 229 -224 32 -27 42 -48 20 -48 -6 0 -99 57 -206
126 -260 168 -317 198 -365 189 l-37 -7 57 -40 c123 -86 323 -270 323 -297 0
-20 -27 -11 -201 67 l-174 78 -177 175 c-98 96 -178 180 -178 187 0 21 28 14
170 -43 76 -30 150 -55 164 -55 39 0 33 29 -16 90 -74 89 -98 123 -93 128 2 3
87 -36 187 -87 174 -87 246 -111 255 -85 4 13 -86 109 -131 141 -54 37 -23 42
49 7 38 -19 76 -34 82 -34 30 0 6 52 -46 98 -35 32 -35 33 -10 28 22 -5 331
-46 344 -46 2 0 -21 25 -51 56 -30 31 -54 63 -54 70 0 18 -1 18 51 -5 51 -22
446 -124 461 -119 6 2 -20 30 -56 62 -36 32 -66 61 -66 66 0 26 75 17 195 -22z
m-5850 -138 c61 -10 200 -39 310 -64 338 -75 439 -90 630 -90 144 -1 186 3
274 23 124 28 186 25 214 -11 10 -12 52 -66 93 -118 41 -52 81 -104 89 -115
27 -35 19 -52 -37 -73 -76 -28 -146 -41 -288 -52 -218 -17 -293 -13 -501 25
-401 74 -745 116 -959 118 -210 1 -204 3 -341 -128 -135 -130 -251 -210 -545
-378 -260 -148 -340 -199 -389 -250 -22 -23 -53 -54 -70 -67 -16 -14 -48 -48
-70 -75 -163 -202 -526 -588 -565 -600 -11 -4 -20 -11 -20 -16 0 -21 -89 -104
-174 -160 -103 -70 -222 -132 -239 -126 -7 2 71 89 173 193 443 453 461 474
601 671 296 415 238 355 529 553 289 196 445 327 526 440 49 69 72 95 175 201
50 51 77 71 124 88 118 44 244 47 460 11z m4226 -181 c248 -81 471 -253 514
-396 10 -34 -24 -30 -71 8 -66 53 -235 162 -241 155 -4 -4 48 -59 115 -124
110 -107 147 -154 135 -174 -5 -10 -110 30 -212 82 -191 96 -327 196 -316 231
4 12 -1 22 -15 29 -22 12 -56 58 -48 66 3 3 58 -11 122 -31 65 -19 119 -35
122 -35 19 0 -10 31 -91 95 -52 42 -95 78 -95 80 0 2 -3 10 -6 19 -8 21 9 20
87 -5z m-4416 -219 c3 -6 -1 -13 -9 -16 -9 -3 -16 -10 -16 -16 0 -5 -30 -50
-66 -101 -70 -97 -91 -133 -81 -143 12 -12 46 18 104 93 78 99 118 138 167
158 36 15 44 15 107 0 38 -10 69 -20 69 -24 0 -4 -7 -16 -15 -27 -17 -22 -20
-64 -5 -64 6 0 29 14 52 30 41 30 84 37 136 24 20 -6 22 -13 22 -64 0 -44 -4
-61 -20 -75 -20 -18 -27 -45 -11 -45 19 0 62 44 93 96 30 50 35 54 70 54 35 0
166 -16 215 -26 26 -5 28 -43 7 -118 -25 -87 10 -74 71 27 22 36 43 68 46 71
3 4 41 2 85 -4 125 -16 124 -16 118 -48 -2 -15 0 -33 5 -41 14 -21 57 0 79 39
l17 30 103 0 102 0 0 -50 c0 -27 4 -50 8 -50 4 0 21 22 37 50 29 48 32 50 75
50 25 0 69 3 99 7 l54 6 -7 -41 c-9 -58 16 -56 52 3 20 34 35 46 60 51 18 4
35 10 38 15 7 12 34 12 34 0 0 -5 18 -38 40 -72 22 -35 47 -81 56 -101 9 -21
20 -38 25 -38 15 0 10 -83 -7 -133 -16 -49 -54 -87 -84 -87 -22 0 -40 47 -40
100 0 39 -21 67 -41 55 -6 -4 -24 -35 -39 -69 -48 -104 -85 -120 -119 -50 -12
24 -12 42 -3 108 7 44 10 81 8 84 -3 2 -20 -20 -39 -50 -41 -64 -115 -134
-165 -155 -53 -22 -66 -1 -59 95 4 55 2 72 -8 72 -7 0 -18 -13 -25 -29 -14
-36 -56 -76 -92 -90 -40 -15 -150 -25 -192 -17 -43 8 -46 27 -16 86 29 57 24
73 -6 20 -34 -60 -53 -80 -77 -80 -15 0 -18 5 -13 23 4 12 9 45 12 72 5 47 4
49 -11 30 -8 -11 -32 -46 -53 -77 -41 -63 -75 -93 -117 -104 -27 -7 -28 -6
-21 22 3 16 9 61 12 99 l6 70 -67 -72 c-72 -79 -105 -93 -105 -45 1 15 5 61
10 102 10 85 -1 112 -28 70 -52 -79 -186 -193 -237 -202 -23 -4 -23 5 2 120 8
40 13 76 9 79 -8 8 -36 -17 -36 -32 0 -25 -101 -124 -152 -149 -75 -38 -88
-35 -88 17 1 23 7 53 15 67 8 14 14 46 15 72 l0 47 -47 -45 c-136 -133 -397
-314 -419 -292 -11 12 15 65 67 136 61 83 51 105 -19 40 -130 -122 -425 -308
-488 -308 -10 0 -11 6 -4 24 13 34 91 150 148 221 27 33 96 123 152 200 118
160 199 244 270 280 75 38 162 55 175 35z m-555 -360 c0 -5 -38 -60 -85 -123
-82 -108 -90 -116 -188 -175 -127 -76 -262 -141 -310 -149 -45 -7 -46 0 -13
93 32 88 73 129 134 138 58 8 218 86 337 165 85 56 125 73 125 51z m1152 -179
c-9 -111 -12 -123 -40 -158 -53 -67 -256 -258 -292 -275 l-35 -17 -3 39 c-2
26 7 63 28 114 40 96 178 306 216 328 16 9 49 36 74 61 25 24 49 40 54 36 5
-4 4 -58 -2 -128z m-249 38 c-3 -23 -1 -50 6 -63 11 -20 7 -32 -37 -107 -116
-194 -255 -358 -366 -431 -66 -42 -86 -47 -86 -19 0 32 39 147 58 172 11 13
22 38 26 54 17 70 86 171 178 262 111 110 187 172 210 173 13 0 15 -7 11 -41z
m-279 -1 c-30 -174 -54 -250 -98 -298 -12 -14 -38 -51 -57 -84 -81 -138 -288
-365 -323 -353 -33 11 20 216 100 384 56 121 112 203 193 283 70 70 119 99
163 100 25 0 27 -2 22 -32z m1572 -34 c8 -58 0 -135 -21 -199 -27 -79 -138
-274 -156 -275 -32 0 -52 38 -58 113 -4 39 -10 77 -14 84 -4 6 2 36 13 65 21
54 26 108 12 108 -15 0 -48 -43 -100 -131 -28 -47 -72 -105 -96 -127 -43 -40
-90 -61 -103 -48 -9 9 -9 97 1 219 9 110 2 133 -23 76 -29 -66 -186 -209 -229
-209 -12 0 -14 10 -9 53 7 64 58 249 71 259 15 10 26 -1 26 -28 0 -29 10 -30
78 -4 l52 20 10 -25 c7 -19 15 -24 32 -21 13 3 48 8 78 11 66 8 147 41 161 66
16 30 34 22 49 -23 20 -57 41 -59 98 -10 44 36 98 71 114 72 4 0 10 -21 14
-46z m495 -31 c15 -50 30 -68 40 -52 5 9 17 4 42 -17 20 -16 36 -32 36 -36 1
-11 86 -87 144 -129 99 -71 116 -89 123 -127 3 -20 8 -44 10 -52 2 -8 -1 -22
-6 -30 -8 -12 -18 -12 -82 4 -102 26 -133 45 -212 124 -54 54 -74 83 -93 133
-13 34 -26 65 -28 68 -3 2 -2 -60 1 -140 6 -119 4 -150 -9 -181 -21 -49 -40
-48 -102 3 -61 50 -73 83 -74 205 l-1 92 83 86 c46 47 91 86 99 86 10 0 21
-15 29 -37z m-1367 -32 c4 -28 11 -53 16 -56 23 -14 6 -47 -59 -113 -70 -71
-131 -106 -131 -76 0 36 35 163 56 206 22 44 88 103 104 93 4 -3 10 -27 14
-54z m1105 4 c30 -80 26 -119 -22 -247 -44 -117 -63 -154 -106 -200 -34 -38
-61 -35 -90 10 -29 44 -32 98 -11 217 13 75 17 84 65 135 28 30 66 74 84 98
18 23 39 42 46 42 8 0 23 -25 34 -55z m-2242 -27 c-34 -77 -57 -135 -57 -145
0 -25 37 -12 79 27 23 22 51 40 62 40 20 0 -6 -44 -164 -280 -95 -141 -240
-286 -327 -328 -86 -41 -120 -49 -120 -28 0 26 119 251 202 381 112 176 197
278 260 315 58 32 73 37 65 18z m-837 -108 c0 -5 -9 -33 -21 -62 -12 -32 -19
-69 -17 -95 3 -40 -1 -46 -76 -133 -44 -50 -114 -123 -155 -163 -42 -39 -94
-96 -117 -127 -23 -30 -88 -100 -145 -155 -103 -100 -169 -150 -189 -143 -31
10 260 418 396 555 45 45 104 110 131 145 28 35 76 86 107 115 31 29 56 57 56
63 0 5 7 10 15 10 8 0 15 -4 15 -10z m610 -28 c0 -29 -293 -373 -437 -513
-100 -98 -145 -133 -162 -127 -19 6 22 95 94 203 40 61 86 137 102 171 33 69
90 154 102 154 5 0 14 -7 21 -14 16 -20 49 -7 119 46 90 68 161 104 161 80z
m-270 -21 c0 -5 -27 -42 -61 -82 -33 -40 -69 -89 -79 -108 -48 -93 -408 -480
-489 -525 l-34 -19 6 34 c12 61 104 230 225 409 116 173 118 175 182 207 84
42 210 92 233 93 9 0 17 -4 17 -9z m6438 -500 c9 -4 35 -18 57 -30 80 -45 202
-101 285 -131 90 -33 143 -55 175 -73 11 -6 38 -16 59 -22 79 -23 59 -40 -98
-80 -60 -15 -97 -20 -115 -14 -14 4 -48 12 -76 18 -56 11 -110 39 -202 107
-35 25 -63 40 -63 33 0 -7 36 -48 81 -92 85 -83 141 -174 116 -189 -12 -6
-144 35 -217 69 -19 9 -60 33 -90 53 -59 40 -140 83 -145 78 -2 -2 36 -39 84
-83 96 -87 112 -117 80 -150 -14 -15 -36 -20 -89 -23 -47 -3 -70 -1 -70 7 0 6
-7 11 -16 11 -29 0 -189 84 -222 117 -32 32 -82 116 -82 137 0 8 31 10 103 8
130 -5 142 4 91 67 -18 24 -34 48 -34 52 0 5 29 9 64 9 91 0 157 11 163 27 3
8 -4 24 -16 37 -36 39 -29 47 49 59 48 8 110 7 128 -2z m-1808 -217 c91 -8
170 -14 175 -15 6 -1 17 2 25 5 12 5 23 -8 42 -48 15 -29 41 -70 59 -90 17
-20 30 -39 27 -41 -2 -3 -40 -9 -84 -14 l-79 -10 -120 58 c-108 53 -248 142
-300 192 -18 17 -16 17 35 -2 39 -15 104 -25 220 -35z m644 -132 c30 -38 75
-52 148 -46 l63 6 57 -57 c46 -46 62 -56 85 -53 26 3 28 6 25 38 l-4 35 22
-20 c60 -55 92 -158 58 -191 -14 -14 -22 -14 -85 5 -38 12 -89 36 -113 53 -24
18 -51 39 -61 46 -21 16 -41 8 -32 -14 3 -8 44 -42 91 -76 64 -45 97 -62 129
-66 24 -2 43 -8 43 -12 0 -16 -62 -59 -93 -65 -36 -7 -138 26 -171 54 -10 9
-36 42 -59 74 -22 31 -42 55 -44 53 -9 -8 40 -92 76 -129 41 -44 80 -67 112
-67 18 0 19 -2 9 -15 -7 -9 -29 -15 -55 -15 -82 0 -158 80 -210 224 -43 117
-76 177 -126 226 l-47 47 81 -5 c72 -4 84 -8 101 -30z m473 21 c15 -10 54 -23
86 -30 73 -15 98 -31 142 -91 42 -57 45 -82 10 -82 -34 0 -136 39 -161 61 -11
11 -25 19 -31 19 -10 0 -103 121 -103 134 0 12 32 5 57 -11z m-646 -93 c24
-13 119 -138 119 -157 0 -8 -8 -28 -17 -46 l-16 -32 -8 27 c-12 46 -49 98 -81
114 -41 21 -46 10 -19 -40 49 -94 136 -142 181 -101 19 18 20 17 20 -8 0 -35
-17 -78 -38 -93 -9 -8 -35 -14 -56 -14 -52 0 -123 53 -206 155 -56 68 -101
158 -86 172 3 3 19 0 35 -7 26 -10 34 -9 68 14 40 28 72 32 104 16z m-223 -52
c7 -7 12 -21 12 -32 1 -40 39 -105 100 -171 34 -37 60 -69 57 -71 -7 -7 -65
18 -115 50 -49 31 -110 118 -118 168 -5 29 -2 38 17 52 28 19 31 20 47 4z"/>
<path d="M8281 19835 c-35 -8 -74 -21 -87 -30 -13 -8 -32 -15 -44 -15 -44 0
-16 -20 64 -46 84 -28 85 -28 125 -9 45 20 121 85 121 103 0 16 -98 14 -179
-3z"/>
<path d="M13110 15931 l-75 -6 70 -39 c273 -152 328 -196 650 -522 210 -212
293 -289 330 -307 83 -41 375 -153 463 -178 66 -18 81 -26 76 -38 -40 -98 12
-228 111 -272 89 -41 215 -9 271 67 15 22 31 43 35 48 4 5 37 -8 73 -28 56
-32 75 -50 139 -139 78 -107 146 -216 191 -305 26 -51 116 -265 116 -276 0 -3
-26 7 -57 20 -82 37 -263 87 -442 124 -189 38 -420 114 -644 210 -93 39 -170
70 -172 68 -4 -5 132 -254 198 -360 186 -300 505 -646 638 -692 205 -72 693
-280 758 -325 11 -7 8 -17 -21 -50 -155 -181 35 -439 251 -341 l44 21 29 -28
c37 -35 35 -43 -10 -43 -54 0 -138 -45 -172 -92 -15 -21 -34 -61 -40 -88 -47
-197 165 -340 334 -225 21 14 42 23 47 20 5 -4 9 -85 9 -185 l0 -178 -142 141
c-166 165 -314 291 -558 473 -204 153 -580 418 -585 412 -2 -2 23 -46 56 -98
60 -96 77 -142 149 -395 17 -60 44 -137 60 -170 54 -114 241 -304 533 -542 70
-58 127 -107 127 -110 0 -3 -19 10 -42 29 -335 271 -872 677 -883 666 -2 -2 7
-56 21 -118 106 -471 343 -816 749 -1092 66 -45 207 -144 313 -221 l192 -140
-38 -17 c-141 -63 -186 -249 -86 -360 31 -34 50 -46 107 -64 15 -5 13 -10 -17
-36 -110 -97 -104 -275 12 -355 40 -27 51 -30 124 -30 l80 0 -7 -80 c-14 -177
-54 -500 -60 -493 -2 2 -11 61 -20 133 -29 224 -78 359 -164 450 -103 109
-297 410 -381 590 -26 55 -67 152 -90 215 -48 128 -73 182 -133 284 -38 64
-41 67 -50 45 -15 -39 -1 -569 18 -689 40 -256 120 -531 239 -820 30 -74 54
-135 52 -137 -1 -1 -22 34 -46 80 -50 95 -540 877 -549 877 -4 0 -17 -60 -29
-132 -72 -426 -47 -803 80 -1188 36 -112 70 -163 232 -348 129 -147 203 -248
247 -334 16 -32 29 -60 29 -63 0 -3 -12 -5 -27 -5 -44 -1 -115 -43 -150 -89
-55 -71 -67 -154 -34 -227 l19 -42 -44 -5 c-24 -2 -67 -16 -94 -29 l-49 -25
-6 41 c-2 23 -14 167 -26 321 -11 154 -22 281 -24 283 -1 2 -29 -28 -61 -65
-159 -187 -279 -423 -426 -833 l-59 -165 6 117 c11 223 48 409 116 574 21 54
39 101 39 105 0 19 -171 -112 -251 -191 -239 -235 -413 -660 -558 -1361 -26
-126 -29 -154 -21 -210 22 -150 6 -335 -40 -474 l-22 -66 -42 39 c-53 48 -102
66 -172 60 -255 -21 -290 -397 -41 -443 l37 -7 -47 -62 c-73 -97 -103 -118
-103 -71 0 14 -9 43 -19 64 -47 92 -151 137 -248 109 l-50 -15 47 136 c26 75
51 146 55 159 5 19 -10 11 -82 -43 -127 -96 -807 -627 -948 -741 -66 -53 -163
-129 -215 -168 -248 -184 -279 -212 -390 -354 -60 -75 -220 -277 -357 -448
l-248 -312 -90 -47 c-211 -113 -516 -308 -769 -493 l-129 -94 -111 47 c-144
62 -493 236 -621 309 -161 93 -375 239 -447 305 -52 48 -80 85 -129 174 -127
231 -238 405 -405 642 -60 85 -166 203 -239 267 -74 65 -338 244 -440 298 -33
18 -118 65 -190 105 -167 93 -316 168 -322 161 -8 -8 16 -272 33 -349 33 -162
95 -300 232 -514 37 -60 72 -115 77 -123 5 -8 -36 17 -91 55 -820 568 -1028
740 -1272 1049 l-102 128 0 162 c0 89 5 189 11 222 6 32 46 138 89 234 118
266 142 348 148 501 5 144 -10 251 -59 439 -53 201 -129 373 -206 467 -57 70
-292 242 -475 348 -55 31 -50 38 -73 -95 -43 -254 -101 -471 -157 -594 -37
-81 -41 -97 -46 -196 -8 -175 29 -369 98 -518 30 -63 57 -101 119 -166 99
-103 151 -183 178 -272 28 -92 38 -148 23 -139 -13 8 -182 218 -281 350 -179
237 -360 499 -502 727 -64 103 -67 109 -67 170 0 82 25 318 41 386 8 34 23 63
41 80 15 15 98 69 185 119 244 142 340 219 417 334 82 124 102 264 86 599 -11
209 -16 276 -56 640 -23 204 -26 267 -22 476 l4 242 -66 -25 c-350 -132 -703
-345 -817 -495 -145 -189 -223 -545 -223 -1013 0 -251 12 -341 75 -557 53
-184 75 -285 74 -336 l0 -37 -25 55 c-38 83 -120 327 -159 474 -78 297 -148
710 -186 1105 l-21 226 254 255 c425 427 659 705 729 867 56 131 100 348 119
592 11 146 12 542 1 683 l-6 87 -115 -66 c-322 -184 -583 -375 -683 -498 -57
-71 -168 -293 -227 -455 -57 -158 -61 -161 -55 -50 23 394 43 574 76 685 67
224 200 364 537 566 224 134 384 263 611 490 310 311 428 478 481 684 22 87
31 228 15 243 -5 5 -22 12 -38 16 -23 5 -29 2 -36 -17 -8 -19 -39 -35 -163
-82 -244 -93 -745 -334 -865 -416 l-46 -32 7 44 c11 72 61 204 106 283 72 126
167 245 309 387 151 150 177 168 522 361 516 289 589 351 919 778 129 168 213
261 282 317 37 29 73 63 79 74 14 28 4 66 -22 80 -88 47 -756 -69 -955 -166
-225 -109 -427 -303 -716 -688 -67 -89 -138 -181 -159 -205 -100 -115 -300
-442 -439 -717 -85 -168 -104 -217 -165 -417 -38 -126 -73 -228 -77 -228 -5 0
-8 42 -8 93 0 50 -7 218 -15 372 -16 309 -29 397 -102 703 l-47 192 -33 0
c-43 0 -48 -13 -68 -165 -23 -178 -55 -298 -138 -520 -99 -264 -172 -492 -187
-585 -26 -155 6 -388 96 -696 69 -237 68 -229 54 -393 -9 -109 -25 -205 -65
-381 -87 -375 -123 -615 -145 -954 -5 -82 -12 -151 -15 -154 -3 -3 -5 2 -5 10
0 43 -44 306 -67 398 -33 137 -64 223 -124 343 -117 235 -198 311 -689 639
-112 75 -207 135 -211 132 -11 -6 -86 -325 -109 -459 -46 -278 -54 -540 -21
-702 37 -176 150 -352 362 -559 213 -208 405 -348 700 -515 90 -51 165 -93
167 -95 2 -1 7 -109 13 -241 15 -413 33 -575 93 -840 13 -57 19 -103 15 -103
-5 0 -39 20 -76 44 -153 98 -602 345 -1093 601 -146 76 -382 208 -525 293
-143 86 -282 166 -310 178 -61 29 -116 31 -138 6 -28 -30 -24 -45 233 -887 90
-295 126 -378 238 -545 220 -331 487 -554 746 -620 157 -40 558 -74 1012 -86
l251 -7 48 -116 c143 -348 420 -788 859 -1360 9 -12 8 -13 -4 -6 -64 38 -172
111 -262 177 -122 90 -201 129 -331 163 -229 60 -436 83 -867 95 -365 10 -494
3 -559 -30 -42 -21 -51 -36 -51 -83 0 -53 61 -130 249 -317 254 -252 479 -420
637 -475 174 -60 450 -94 819 -102 277 -6 332 -2 550 36 61 11 153 22 206 26
l97 7 148 -173 c260 -305 478 -520 679 -672 173 -129 607 -415 1082 -711 227
-141 415 -262 419 -268 13 -21 -101 3 -166 36 -36 18 -252 148 -480 288 -517
317 -592 361 -681 393 -144 52 -454 96 -808 115 -213 11 -230 10 -731 -45
-173 -20 -380 -41 -459 -48 -157 -13 -170 -19 -157 -73 26 -101 689 -588 1021
-749 412 -201 923 -358 1205 -371 132 -6 234 9 645 95 401 84 381 82 779 79
l354 -3 177 -88 c97 -48 219 -117 272 -153 53 -36 121 -78 152 -93 66 -33 341
-152 491 -211 58 -23 109 -45 113 -49 7 -7 -551 -460 -888 -721 -66 -51 -111
-90 -100 -87 450 133 756 193 1043 204 l162 6 138 170 c75 93 146 181 158 195
l20 25 110 -43 c1098 -426 1298 -500 1349 -500 132 0 225 77 225 188 0 58 -15
95 -53 130 -41 38 -377 173 -1027 412 -168 61 -309 115 -313 119 -11 10 225
238 353 340 240 193 444 299 665 346 105 23 355 22 655 -1 308 -24 739 -24
915 0 375 50 680 158 943 334 115 76 275 207 259 210 -8 2 -79 -4 -158 -13
-147 -17 -678 -34 -1004 -34 l-180 1 285 53 c387 73 465 90 610 137 246 79
492 198 848 410 111 66 201 122 200 123 -2 1 -149 -15 -328 -36 -353 -41 -749
-79 -819 -79 l-44 0 21 23 c73 77 69 223 -9 303 l-29 30 53 37 c29 20 57 37
60 37 4 0 7 -12 7 -27 1 -39 34 -108 67 -139 65 -60 164 -71 251 -28 80 40
132 125 132 213 0 40 -31 115 -61 147 l-19 20 512 133 c282 73 547 144 588
158 99 32 367 164 504 247 274 167 536 381 744 608 157 171 217 242 197 231
-11 -6 -102 -54 -201 -107 -423 -225 -783 -358 -1139 -422 -347 -62 -481 -97
-659 -176 -50 -22 -98 -42 -106 -45 -8 -4 69 63 171 148 l186 155 399 73 c384
71 403 76 504 122 350 158 615 358 811 612 38 49 68 91 66 93 -2 2 -249 -52
-548 -120 -505 -115 -553 -128 -678 -181 -73 -31 -134 -55 -136 -53 -1 2 38
67 88 145 l90 143 18 -29 c39 -65 136 -109 212 -97 179 29 268 243 154 373
-37 42 -98 72 -145 73 l-33 0 18 30 c9 17 22 30 28 30 31 0 120 93 138 143 3
8 13 4 29 -11 77 -71 217 -59 302 24 82 82 88 232 13 312 -27 29 -89 62 -116
62 -28 0 -32 12 -12 38 11 16 55 36 136 62 154 51 394 171 515 257 111 80 277
236 363 343 157 195 299 463 395 745 39 113 103 337 98 342 -7 8 -173 -135
-314 -269 -81 -77 -190 -175 -243 -217 -107 -87 -449 -334 -449 -325 0 6 254
331 361 461 117 143 174 256 224 445 43 165 57 295 64 603 4 160 6 291 5 293
0 1 -23 -61 -49 -139 -89 -261 -156 -377 -440 -759 -186 -250 -355 -493 -355
-511 0 -5 -4 -9 -8 -9 -5 0 -3 39 4 88 6 48 17 144 24 214 l13 126 58 0 c179
0 293 190 207 343 -38 67 -141 119 -209 104 -27 -6 -29 -5 -29 24 0 17 1 31 3
31 1 0 20 -7 42 -15 86 -31 174 -10 242 57 90 88 97 220 17 308 -48 52 -107
74 -184 67 -68 -6 -66 -9 -49 76 11 54 17 61 158 204 161 164 245 273 358 468
188 325 242 489 262 795 8 130 2 443 -10 454 -2 2 -168 -245 -369 -549 -201
-305 -366 -552 -367 -551 -1 1 44 116 101 257 179 443 293 774 376 1094 50
188 101 417 96 422 -4 5 -157 -178 -248 -297 -234 -306 -447 -705 -604 -1128
-22 -59 -41 -97 -44 -90 -4 7 -24 81 -44 163 l-37 151 35 37 c19 20 40 52 47
71 10 29 20 36 56 45 25 7 61 27 84 48 106 96 116 237 23 329 -50 51 -105 69
-181 60 -51 -6 -53 -5 -59 21 -10 48 -27 85 -52 114 l-24 29 32 0 c61 0 114
23 160 70 50 49 70 100 70 171 -1 121 -114 222 -232 206 -21 -3 -38 -4 -38 -4
0 1 7 34 15 72 19 91 19 252 -1 340 -9 39 -18 102 -20 140 -4 98 -36 188 -184
520 -220 496 -255 631 -248 953 l4 197 -39 -120 c-159 -498 -201 -723 -201
-1085 0 -180 5 -255 22 -372 12 -82 22 -156 22 -165 0 -20 -232 417 -315 592
-28 61 -69 155 -90 210 -21 55 -47 110 -58 122 -19 22 -19 22 17 54 117 103
107 286 -20 361 -23 13 -34 28 -34 42 0 69 -45 137 -114 171 -86 43 -180 30
-251 -36 -24 -22 -48 -53 -55 -69 -7 -17 -17 -30 -22 -30 -5 0 -111 99 -236
221 -202 196 -236 226 -307 261 -179 91 -391 154 -608 183 -118 15 -451 18
-617 6z m1810 -9065 l39 -369 -47 -60 -47 -60 -3 444 c-1 244 1 451 5 459 8
18 5 46 53 -414z m-1522 -1757 c16 -13 38 -29 48 -35 16 -9 -12 -33 -219 -187
-131 -98 -240 -177 -242 -177 -2 0 30 44 72 98 84 107 195 273 239 357 l29 55
22 -44 c12 -24 35 -54 51 -67z m227 -330 c4 -17 23 -49 42 -70 24 -27 31 -40
22 -43 -8 -2 -61 -14 -118 -26 -58 -12 -167 -43 -243 -69 -76 -26 -135 -44
-131 -40 15 15 408 279 414 279 4 0 10 -14 14 -31z"/>
<path d="M10161 15903 l-53 -4 6 -257 c4 -141 9 -292 12 -336 l6 -78 142 4
c119 3 147 7 181 25 99 53 146 139 153 284 8 169 -46 287 -154 340 -37 18 -67
23 -143 24 -53 2 -120 1 -150 -2z m211 -113 c44 -13 93 -66 107 -117 18 -62
13 -182 -8 -228 -34 -74 -85 -105 -175 -105 l-53 0 -6 137 c-4 75 -7 178 -7
230 l0 93 53 0 c28 0 69 -5 89 -10z"/>
<path d="M10844 15841 c-118 -54 -204 -240 -191 -412 7 -80 23 -123 67 -173
46 -52 102 -78 183 -84 160 -11 273 98 313 303 35 184 -31 329 -170 370 -68
20 -152 19 -202 -4z m195 -118 c46 -35 66 -81 66 -153 -2 -206 -137 -348 -255
-267 -62 42 -75 69 -75 160 1 129 41 219 120 269 37 24 105 19 144 -9z"/>
<path d="M9448 15732 c-27 -8 -48 -19 -48 -23 0 -4 43 -139 96 -300 52 -160
93 -293 92 -295 -2 -2 -107 100 -233 226 -127 127 -237 230 -245 230 -13 0
-120 -56 -120 -63 0 -2 31 -144 70 -317 38 -172 69 -314 67 -315 -1 -1 -54 20
-118 47 l-116 50 14 39 c17 51 8 107 -27 163 -58 92 -145 126 -233 92 -46 -17
-283 -205 -278 -221 4 -15 411 -515 419 -515 11 0 82 60 82 70 0 5 -31 46 -68
92 -37 46 -71 88 -75 95 -4 6 13 28 44 53 l50 43 134 -58 134 -57 43 35 c24
18 58 42 76 53 36 21 37 28 17 104 -24 90 -24 90 71 143 l87 49 63 -63 63 -62
58 25 c32 15 139 52 238 84 99 32 183 60 188 64 11 9 -23 100 -37 100 -7 0
-66 -18 -131 -40 -65 -22 -125 -40 -132 -40 -7 0 -46 103 -98 265 -48 146 -90
265 -93 264 -4 0 -28 -8 -54 -17z m-141 -498 c-4 -4 -129 -74 -132 -74 -3 0
-65 253 -65 267 0 4 45 -37 100 -92 54 -54 98 -100 97 -101z m-541 -108 c36
-36 44 -78 24 -116 -9 -17 -132 -120 -143 -120 -3 0 -33 33 -66 74 l-60 73 62
50 c108 87 131 91 183 39z"/>
<path d="M11445 15363 c-88 -156 -161 -289 -163 -296 -1 -7 20 -24 46 -39 l49
-28 52 93 c78 143 67 135 135 96 l58 -32 -3 -146 -4 -146 51 -27 51 -28 8 158
7 157 38 1 c88 3 178 96 188 194 6 65 -2 93 -39 134 -25 30 -176 124 -284 178
l-30 15 -160 -284z m300 79 c85 -50 104 -76 91 -127 -9 -37 -59 -85 -88 -85
-22 0 -120 47 -166 80 l-22 15 46 83 c25 45 48 82 52 82 4 0 43 -21 87 -48z"/>
<path d="M11951 15068 c-106 -144 -195 -267 -197 -273 -4 -10 84 -82 90 -74 1
2 91 124 199 272 108 147 197 269 197 270 0 4 -87 67 -92 67 -2 0 -91 -118
-197 -262z"/>
<path d="M12274 15101 c-105 -27 -230 -135 -285 -247 -78 -157 -31 -307 117
-380 47 -23 63 -26 122 -22 90 7 160 43 242 127 143 146 168 308 66 427 -63
74 -179 116 -262 95z m123 -127 c46 -22 83 -78 83 -126 0 -76 -74 -185 -165
-246 -63 -42 -105 -48 -160 -23 -119 53 -112 193 17 322 83 83 154 106 225 73z"/>
<path d="M8126 14808 c-82 -88 -144 -163 -140 -168 5 -4 117 -108 249 -230
l240 -222 98 103 c54 57 124 132 154 167 l56 63 -33 34 c-19 19 -39 35 -44 35
-6 0 -60 -54 -120 -120 l-110 -119 -50 46 c-28 25 -57 52 -65 59 -12 11 1 29
82 117 53 58 97 109 97 115 0 5 -17 25 -37 42 l-37 33 -102 -109 -102 -109
-56 55 c-31 30 -56 57 -56 61 0 3 47 57 104 120 58 62 103 117 100 120 -2 4
-21 21 -42 37 l-37 30 -149 -160z"/>
<path d="M10155 14945 c-583 -94 -1108 -445 -1551 -1037 -582 -779 -942 -1867
-1024 -3093 -14 -207 -14 -745 0 -950 86 -1258 462 -2363 1076 -3155 114 -147
349 -389 484 -497 511 -412 1080 -568 1640 -452 676 140 1294 661 1751 1475
383 683 626 1516 715 2454 21 227 30 844 15 1085 -80 1297 -471 2442 -1104
3233 -122 153 -336 370 -467 474 -290 231 -607 384 -926 449 -142 28 -470 36
-609 14z m469 -945 l98 -216 247 -38 c333 -52 362 -57 359 -65 -2 -4 -101 -98
-220 -210 -155 -144 -218 -209 -218 -224 0 -12 16 -136 36 -275 20 -139 34
-255 31 -258 -3 -3 -116 56 -251 131 l-245 137 -246 -137 c-136 -75 -249 -134
-251 -132 -3 3 11 119 31 258 20 140 37 263 38 274 1 15 -58 77 -222 230 -203
189 -222 210 -200 215 13 4 151 26 306 50 l282 44 82 181 c46 99 105 227 132
285 l48 105 33 -70 c18 -38 76 -167 130 -285z m1155 -3488 c490 -1082 891
-1972 891 -1978 -1 -13 -454 -284 -462 -276 -6 6 -1497 4094 -1501 4116 -2 8
158 104 174 106 3 0 407 -886 898 -1968z m-1748 1897 c47 -23 59 -34 54 -47
-3 -9 -325 -899 -715 -1977 -390 -1078 -723 -1999 -740 -2047 -18 -49 -36 -88
-40 -88 -7 0 -448 264 -458 274 -2 2 396 856 884 1897 488 1042 900 1922 916
1957 15 34 31 62 33 62 3 0 33 -14 66 -31z m206 -85 c3 -34 -331 -2892 -339
-2900 -5 -4 -493 168 -502 177 -3 3 723 2723 739 2766 3 8 15 8 52 -1 43 -11
48 -15 50 -42z m433 32 c0 -2 167 -621 370 -1376 204 -754 370 -1375 370
-1379 0 -4 -28 -16 -62 -28 -35 -11 -147 -51 -251 -89 -103 -37 -189 -65 -192
-63 -4 4 -355 2876 -355 2905 0 7 17 16 38 22 39 11 82 15 82 8z m-189 -13
c10 -124 184 -2890 182 -2895 -3 -5 -121 -8 -264 -8 l-260 0 6 78 c3 42 35
655 70 1362 35 707 67 1324 71 1372 l6 87 37 4 c69 7 151 7 152 0z m-199
-3464 c117 -25 258 -123 258 -180 0 -13 -20 -307 -45 -654 -25 -346 -45 -643
-46 -660 0 -27 -2 -25 -27 25 -52 107 -144 177 -287 215 -133 37 -424 30 -689
-15 -61 -10 -112 -17 -114 -16 -2 3 303 1162 323 1226 4 12 50 22 192 42 206
28 353 34 435 17z m1018 -27 l165 -17 6 -40 c15 -87 133 -1184 129 -1188 -3
-3 -37 1 -76 8 -261 50 -581 57 -736 16 -143 -37 -254 -114 -299 -207 -12 -25
-22 -44 -23 -42 -2 2 19 301 45 665 52 741 43 690 131 753 111 81 256 92 658
52z m-1830 -661 l-160 -602 -146 -169 c-81 -94 -149 -169 -150 -167 -2 2 92
307 208 678 l211 674 96 103 c52 57 97 99 99 94 1 -5 -70 -279 -158 -611z
m2101 524 c41 -50 79 -97 86 -106 12 -15 227 -1321 221 -1340 -2 -5 -60 66
-130 159 l-126 167 -66 595 c-66 593 -69 627 -62 619 2 -2 37 -45 77 -94z
m248 -172 c17 -87 94 -466 170 -843 77 -377 138 -686 137 -687 -1 -1 -312 22
-691 51 l-689 52 -55 -33 c-76 -45 -140 -63 -231 -63 -93 0 -165 20 -250 69
l-65 38 -693 -55 c-381 -30 -694 -53 -697 -50 -3 2 122 379 277 836 l282 832
85 0 85 0 -31 -32 c-28 -29 -57 -114 -256 -748 -124 -393 -224 -716 -223 -717
1 -2 284 22 628 53 l625 56 49 -35 c71 -51 152 -72 222 -58 48 10 114 39 177
80 18 11 118 6 624 -34 331 -26 604 -45 606 -43 2 2 -45 310 -105 683 -60 374
-110 685 -110 691 0 6 -18 34 -41 63 l-41 51 90 0 89 0 32 -157z m-619 -903
c69 -5 187 -19 262 -31 110 -17 140 -25 156 -43 42 -46 253 -328 249 -333 -3
-2 -269 17 -592 42 l-588 46 -36 -25 c-44 -30 -114 -61 -160 -71 l-34 -7 7 56
c25 216 181 337 471 365 114 12 126 12 265 1z m-1097 -25 c165 -35 277 -124
317 -251 11 -36 20 -84 20 -106 0 -39 0 -40 -32 -33 -45 10 -108 42 -139 72
l-26 24 -614 -55 c-338 -30 -615 -53 -616 -52 -5 5 302 352 317 358 26 10 274
48 380 58 119 11 304 4 393 -15z"/>
<path d="M12766 14529 c-106 -25 -274 -158 -316 -250 -28 -62 -27 -158 2 -218
46 -95 178 -191 263 -191 22 0 215 131 215 146 0 8 -134 193 -140 194 -3 0
-23 -15 -44 -33 l-39 -34 36 -48 c20 -26 37 -51 37 -55 0 -4 -16 -18 -36 -32
-31 -23 -40 -25 -66 -16 -17 6 -50 29 -73 52 -53 51 -70 102 -53 159 25 85
165 197 265 213 101 16 197 -100 158 -192 -8 -20 -15 -39 -15 -43 0 -7 83 -61
94 -61 17 0 46 89 46 143 0 73 -29 136 -91 199 -67 67 -147 89 -243 67z"/>
<path d="M7915 14461 c-38 -10 -82 -33 -117 -63 -25 -22 -171 -218 -166 -223
2 -1 111 -80 243 -175 132 -95 254 -184 271 -197 l32 -24 76 105 c110 151 126
211 86 318 -39 106 -174 221 -295 253 -64 16 -83 17 -130 6z m149 -140 c60
-30 133 -95 156 -142 31 -61 26 -106 -20 -178 l-40 -62 -43 31 c-23 17 -106
77 -184 133 -79 56 -143 104 -143 107 0 14 98 114 124 126 39 18 93 12 150
-15z"/>
<path d="M13165 14069 c-44 -25 -175 -101 -292 -168 l-212 -122 27 -49 c15
-28 29 -50 32 -50 3 0 52 27 109 60 57 33 107 60 110 60 4 0 20 -26 38 -57
l31 -58 -74 -115 c-40 -63 -74 -119 -74 -124 0 -5 19 -48 43 -95 23 -47 42
-87 43 -88 0 -3 118 15 152 22 21 5 27 -4 68 -91 24 -53 43 -97 42 -98 -27
-15 -128 -112 -128 -122 0 -8 9 -33 21 -55 18 -37 22 -39 37 -27 244 207 512
442 512 449 0 5 -11 33 -24 64 -17 37 -31 55 -43 55 -10 0 -154 -19 -321 -42
-166 -23 -304 -39 -307 -36 -5 4 113 199 130 216 2 3 15 -2 27 -10 85 -56 245
-2 292 97 33 69 20 126 -64 272 -40 70 -78 135 -84 144 -10 13 -21 9 -91 -32z
m89 -187 c61 -105 60 -154 -4 -187 -34 -17 -73 -19 -100 -5 -18 10 -95 131
-102 160 -2 10 71 61 159 109 0 1 22 -34 47 -77z m256 -536 c0 -6 -211 -178
-214 -175 -14 17 -57 131 -52 137 13 12 266 49 266 38z"/>
<path d="M7473 13912 c-57 -99 -103 -184 -103 -189 0 -6 116 -78 258 -159 141
-81 271 -156 288 -166 l32 -19 105 183 c58 101 109 190 112 198 4 11 -6 23
-34 38 -21 12 -43 22 -48 22 -5 0 -45 -62 -88 -137 -43 -76 -80 -140 -81 -142
-3 -3 -107 53 -142 77 -10 7 4 38 58 131 38 68 70 126 70 131 0 9 -87 56 -93
50 -2 -3 -30 -50 -62 -105 -32 -55 -64 -110 -71 -122 l-14 -22 -70 40 c-38 23
-70 43 -70 45 0 3 34 64 75 135 41 72 75 134 75 138 0 8 -73 51 -86 51 -5 0
-55 -80 -111 -178z"/>
<path d="M7241 13470 c-46 -99 -82 -183 -79 -185 5 -5 599 -285 605 -285 3 0
53 97 53 102 0 2 -49 26 -110 53 -60 28 -110 54 -110 58 0 5 25 61 55 124 30
64 55 120 55 125 0 10 -89 52 -96 46 -2 -3 -29 -58 -60 -124 -31 -65 -57 -120
-59 -122 -4 -4 -185 79 -185 84 0 4 30 70 84 186 l35 78 -39 20 c-22 11 -45
20 -52 20 -7 0 -51 -81 -97 -180z"/>
<path d="M13440 12985 c-162 -58 -300 -107 -307 -109 -16 -7 14 -96 32 -96 10
0 251 83 430 149 21 8 -28 -47 -162 -178 -106 -105 -193 -195 -193 -202 0 -28
35 -119 45 -119 9 0 469 159 622 214 15 6 -17 96 -34 96 -7 0 -113 -36 -235
-79 -123 -44 -224 -78 -226 -76 -1 1 86 89 195 194 l197 192 -20 57 c-11 31
-27 58 -35 59 -8 1 -147 -45 -309 -102z"/>
<path d="M6987 12843 c-37 -109 -68 -202 -68 -207 0 -8 609 -226 630 -226 3 0
37 91 75 203 38 111 71 207 73 212 3 9 -96 51 -101 43 -1 -2 -26 -70 -54 -152
-29 -82 -54 -151 -56 -154 -3 -2 -41 8 -86 23 -66 22 -80 30 -75 44 23 57 85
245 85 255 0 7 -22 19 -49 28 l-49 16 -47 -137 c-26 -75 -48 -137 -49 -138 -5
-6 -156 49 -156 56 0 4 23 72 50 151 28 78 49 144 48 145 -7 5 -89 35 -96 35
-4 0 -38 -89 -75 -197z"/>
<path d="M13611 12475 c-172 -46 -315 -85 -317 -88 -8 -8 65 -257 85 -291 62
-100 204 -140 356 -101 86 23 137 48 184 91 93 83 105 164 56 357 -16 64 -34
117 -40 116 -5 0 -151 -38 -324 -84z m268 -102 c22 -101 18 -135 -24 -182 -43
-47 -119 -81 -196 -88 -126 -12 -185 25 -214 132 -10 36 -16 67 -14 69 4 3
417 114 431 115 3 1 11 -20 17 -46z"/>
<path d="M7029 12490 c-83 -14 -147 -64 -186 -145 -21 -42 -79 -252 -72 -259
2 -3 147 -42 321 -88 175 -46 318 -85 318 -88 0 -3 -147 -21 -327 -39 -181
-19 -337 -38 -349 -42 -17 -6 -23 -21 -31 -71 -6 -35 -10 -63 -9 -64 0 0 140
-72 310 -159 309 -158 325 -163 326 -119 0 6 3 25 6 42 6 30 4 32 -75 72 -71
35 -81 43 -77 63 8 35 36 179 36 182 0 2 40 6 89 10 l89 7 6 36 c4 21 25 110
47 199 38 151 40 165 29 217 -21 104 -111 188 -239 225 -82 24 -152 31 -212
21z m196 -141 c92 -34 145 -92 145 -158 0 -56 -22 -131 -39 -131 -17 0 -421
106 -426 112 -8 8 44 141 62 159 51 52 150 59 258 18z m-119 -594 c-3 -8 -8
-37 -12 -64 -11 -83 -9 -83 -151 -11 l-128 64 115 11 c173 18 183 17 176 0z"/>
<path d="M13753 11956 c-177 -34 -324 -64 -328 -67 -6 -6 70 -427 78 -436 6
-5 81 7 95 16 6 4 0 60 -20 164 -16 88 -28 161 -26 163 12 11 163 33 168 24 4
-6 17 -71 30 -145 l24 -135 36 6 c57 9 70 15 70 28 0 6 -11 70 -25 141 -13 71
-22 131 -20 133 5 5 130 31 151 32 6 0 23 -67 39 -155 l29 -156 45 7 c25 3 50
10 54 14 8 7 -61 409 -72 421 -3 3 -151 -22 -328 -55z"/>
<path d="M6796 11414 c-69 -22 -140 -95 -160 -165 -14 -53 -42 -267 -35 -274
6 -5 662 -75 666 -71 2 2 10 61 18 131 22 198 -6 273 -128 340 -98 54 -255 71
-361 39z m247 -118 c102 -31 141 -83 139 -186 -1 -35 -6 -68 -11 -73 -7 -7
-367 25 -429 39 -22 5 -23 8 -17 57 13 91 40 136 100 163 39 17 160 18 218 0z"/>
<path d="M13831 11299 c-161 -15 -296 -31 -299 -34 -3 -3 0 -62 7 -132 14
-153 40 -217 104 -264 64 -47 134 -62 253 -57 90 4 111 9 168 37 121 59 164
145 152 305 -4 50 -10 110 -13 134 -7 51 28 50 -372 11z m276 -212 c-6 -63
-30 -96 -100 -131 -116 -58 -283 -32 -331 53 -13 22 -20 54 -20 95 l-1 61 220
20 220 20 8 -35 c5 -19 6 -57 4 -83z"/>
<path d="M6597 10893 c-4 -3 -7 -30 -7 -60 0 -51 1 -53 28 -53 15 0 164 -9
331 -20 168 -11 307 -17 310 -15 2 3 6 30 9 60 4 55 4 55 -24 55 -20 0 -614
37 -640 40 0 0 -4 -3 -7 -7z"/>
<path d="M13845 10784 c-109 -17 -201 -71 -242 -142 -25 -41 -28 -57 -28 -132
0 -98 19 -145 80 -198 73 -65 153 -87 294 -80 204 10 314 108 313 280 0 125
-74 225 -190 258 -42 12 -182 21 -227 14z m223 -143 c54 -28 82 -72 82 -131 0
-102 -69 -151 -221 -158 -82 -4 -102 -1 -147 18 -152 65 -129 240 37 287 69
19 196 11 249 -16z"/>
<path d="M6697 10707 c-50 -12 -102 -63 -116 -112 -17 -63 -13 -174 8 -221 33
-73 112 -112 200 -100 92 13 130 57 175 208 19 62 34 93 52 107 75 59 157 -14
140 -123 -9 -54 -30 -85 -71 -101 -32 -14 -32 -15 -24 -57 4 -24 8 -49 9 -57
0 -18 42 -7 97 25 64 37 93 104 93 213 -1 162 -61 231 -202 231 -116 0 -158
-40 -208 -203 -33 -105 -52 -127 -106 -127 -47 0 -74 38 -74 102 0 41 5 54 29
79 16 16 36 29 45 29 13 0 15 9 9 48 -8 66 -12 70 -56 59z"/>
<path d="M7107 10184 l-129 -76 -30 36 c-44 54 -82 70 -163 70 -87 0 -141 -27
-176 -88 -23 -40 -24 -47 -21 -216 2 -96 6 -177 10 -181 4 -3 157 2 340 10
l332 14 0 60 0 59 -130 -7 -130 -7 -2 46 c-1 25 -2 56 -2 68 -1 18 22 36 119
94 l120 71 3 61 c2 34 -1 62 -5 62 -4 0 -66 -35 -136 -76z m-248 -112 c25 -24
29 -37 35 -115 4 -48 4 -92 1 -97 -3 -6 -48 -10 -99 -10 l-93 0 -7 85 c-8 96
2 131 44 152 43 22 88 16 119 -15z"/>
<path d="M13580 10023 c0 -10 -3 -34 -6 -54 l-6 -36 208 -13 c330 -20 327 -10
38 -119 -137 -52 -252 -99 -256 -105 -4 -6 -8 -38 -8 -71 l0 -61 331 -23 c182
-13 332 -21 333 -19 2 1 6 24 10 49 l7 46 -48 6 c-26 3 -141 12 -256 19 -114
6 -202 15 -195 19 7 4 121 48 253 99 132 50 245 96 252 102 8 6 13 34 13 68
l0 58 -62 6 c-35 3 -164 13 -288 21 -124 8 -246 17 -272 20 -41 5 -48 3 -48
-12z"/>
<path d="M7210 9731 l-45 -6 3 -40 c2 -22 10 -96 18 -164 8 -68 13 -125 12
-127 -5 -4 -163 -21 -169 -18 -4 2 -12 54 -18 116 -20 189 -14 174 -74 168
-60 -6 -57 11 -37 -173 7 -65 10 -120 8 -123 -9 -8 -153 -23 -159 -16 -3 4
-12 61 -18 127 -7 66 -14 134 -18 152 l-5 32 -52 -6 c-28 -3 -52 -6 -53 -7 -3
-3 45 -428 49 -431 6 -4 657 71 663 77 4 3 -3 91 -14 194 -25 224 -30 254 -39
252 -4 0 -27 -4 -52 -7z"/>
<path d="M13666 9484 c-124 -39 -201 -193 -162 -326 38 -133 185 -218 376
-218 97 0 165 20 217 65 62 53 87 113 88 210 0 70 -4 86 -28 128 -33 56 -87
98 -166 128 -75 29 -253 36 -325 13z m271 -119 c102 -30 156 -109 134 -193
-12 -42 -52 -85 -94 -101 -46 -18 -159 -13 -230 9 -49 15 -73 30 -101 60 -32
36 -36 46 -36 95 0 49 4 60 33 91 57 62 167 77 294 39z"/>
<path d="M6663 9121 l9 -59 42 -5 c22 -3 150 -14 284 -24 l243 -18 -40 -17
c-22 -9 -139 -62 -259 -118 l-218 -101 9 -57 c6 -31 11 -58 13 -60 1 -2 143
68 316 154 l314 157 -9 59 c-6 33 -15 61 -21 63 -6 2 -150 20 -321 40 -170 19
-324 37 -341 40 l-31 5 10 -59z"/>
<path d="M13456 8953 c-3 -10 -8 -34 -11 -55 -8 -42 -19 -36 133 -69 113 -25
110 -21 91 -107 l-12 -49 -140 -39 -141 -39 -12 -55 c-7 -30 -10 -57 -8 -59 3
-4 251 61 287 75 9 3 18 -9 25 -35 16 -51 68 -96 134 -116 67 -20 104 -19 155
4 66 30 88 74 128 255 20 87 34 160 32 162 -5 5 -626 144 -643 144 -7 0 -15
-8 -18 -17z m457 -198 c63 -14 77 -20 73 -34 -3 -9 -13 -49 -22 -90 -25 -112
-66 -142 -149 -107 -59 25 -65 54 -38 179 15 70 19 78 37 73 12 -2 56 -12 99
-21z"/>
<path d="M7070 8708 c-168 -38 -306 -71 -308 -73 -5 -5 9 -90 16 -102 5 -8
114 13 330 62 177 40 324 74 326 76 3 2 -1 28 -6 57 -9 44 -14 52 -32 51 -11
-1 -158 -33 -326 -71z"/>
<path d="M7122 8540 c-173 -49 -316 -91 -319 -93 -6 -6 6 -69 16 -86 8 -12
174 28 410 100 35 11 66 17 68 15 3 -3 -317 -281 -406 -353 -5 -3 19 -107 28
-122 6 -9 632 157 647 171 5 6 -16 98 -23 98 -9 0 -430 -119 -458 -130 -30
-11 -30 -11 -10 8 11 10 107 92 213 182 105 89 192 167 192 171 0 19 -34 129
-39 128 -3 -1 -147 -41 -319 -89z"/>
<path d="M13879 8274 c-13 -46 -27 -84 -32 -84 -5 0 -124 34 -264 76 -140 41
-261 73 -268 71 -11 -5 -40 -95 -33 -103 2 -2 121 -37 263 -80 143 -42 263
-79 267 -83 3 -3 -2 -32 -12 -63 -35 -113 -37 -105 22 -123 28 -8 52 -14 53
-12 4 4 134 451 132 453 -1 1 -25 9 -53 17 l-51 15 -24 -84z"/>
<path d="M7410 8070 c-46 -8 -438 -147 -454 -161 -6 -5 16 -87 30 -107 1 -2
95 32 210 74 225 83 279 93 329 60 29 -19 55 -71 55 -110 0 -29 -41 -81 -82
-102 -16 -8 -115 -46 -220 -85 -104 -38 -193 -71 -198 -74 -4 -3 1 -29 12 -58
l20 -54 225 82 c241 88 294 118 331 180 33 57 27 172 -11 238 -34 58 -91 105
-137 113 -19 3 -42 7 -50 9 -8 1 -35 -1 -60 -5z"/>
<path d="M13226 8061 c-5 -7 -156 -412 -156 -417 0 -5 101 -36 104 -33 2 2 25
63 51 134 26 72 52 140 56 152 l8 23 78 -29 c42 -15 79 -33 80 -38 2 -5 -19
-68 -46 -139 -27 -71 -48 -130 -47 -131 0 -1 24 -10 52 -21 l50 -20 43 116
c24 65 47 127 52 139 l8 22 76 -27 c41 -15 75 -32 75 -39 0 -7 -23 -74 -51
-149 -28 -74 -48 -138 -44 -142 3 -3 26 -14 50 -23 l44 -17 22 57 c75 199 130
353 127 355 -2 1 -122 47 -268 100 -146 54 -286 107 -312 117 -26 10 -49 15
-52 10z"/>
<path d="M7583 7121 c-86 -54 -82 -190 6 -236 17 -8 49 -15 73 -15 122 0 178
149 88 235 -40 38 -119 46 -167 16z"/>
<path d="M12984 7121 c-48 -29 -64 -59 -64 -119 0 -50 3 -58 39 -93 35 -36 43
-39 93 -39 85 0 138 53 138 137 0 103 -117 168 -206 114z"/>
<path d="M12497 6670 c-70 -104 -127 -194 -127 -199 0 -7 73 -61 83 -61 2 0
25 32 51 70 25 39 48 70 51 70 3 0 110 -70 238 -155 259 -173 233 -165 281
-85 l15 27 -235 157 c-153 103 -232 161 -227 169 3 7 24 38 45 69 21 31 38 61
38 66 0 8 -73 62 -83 62 -2 0 -61 -85 -130 -190z"/>
<path d="M8045 6563 c-176 -52 -322 -97 -324 -99 -6 -5 31 -73 47 -86 9 -8 33
-5 88 12 41 12 81 20 88 17 7 -3 36 -41 63 -85 l51 -79 -59 -68 c-58 -67 -58
-68 -43 -95 49 -81 24 -99 274 191 124 144 227 266 229 271 5 14 -67 118 -82
117 -6 -1 -156 -44 -332 -96z m194 -125 c-50 -57 -95 -104 -100 -106 -4 -2
-26 25 -48 60 -26 41 -36 64 -28 67 35 13 253 80 260 80 4 1 -34 -45 -84 -101z"/>
<path d="M12201 6273 c-78 -86 -141 -160 -141 -164 0 -12 490 -451 499 -447 5
2 75 77 156 167 l148 163 -39 34 c-21 18 -42 33 -45 34 -4 0 -46 -44 -95 -97
-48 -54 -98 -109 -110 -122 l-23 -25 -58 55 c-32 29 -60 57 -61 62 -2 4 40 55
93 115 l96 107 -37 33 c-21 17 -42 32 -48 31 -6 0 -53 -48 -104 -105 l-94
-104 -56 51 c-32 28 -58 55 -60 58 -1 4 43 57 98 118 55 61 100 115 100 120 0
10 -62 73 -72 73 -3 0 -70 -71 -147 -157z"/>
<path d="M8474 6361 c-106 -27 -251 -148 -304 -254 -38 -76 -42 -167 -10 -232
23 -48 81 -109 125 -133 35 -20 165 -22 207 -4 27 11 27 11 13 58 -7 25 -16
48 -19 51 -3 3 -25 1 -49 -5 -58 -15 -107 -1 -145 43 -63 71 -51 143 40 241
125 133 230 157 307 69 38 -44 47 -90 28 -138 l-16 -36 44 -25 c24 -15 46 -26
50 -26 3 0 15 19 25 43 23 50 26 134 6 182 -20 46 -92 122 -139 146 -44 23
-117 32 -163 20z"/>
<path d="M11915 5998 c-39 -14 -99 -54 -186 -124 l-70 -56 28 -36 c92 -122
385 -492 389 -492 3 0 53 36 110 81 134 103 159 143 159 249 0 63 -5 85 -31
140 -42 88 -110 168 -178 209 -46 28 -69 34 -124 37 -37 2 -80 -1 -97 -8z
m166 -137 c48 -30 109 -106 134 -165 19 -45 19 -109 1 -145 -15 -28 -104 -103
-117 -99 -7 3 -279 347 -279 353 0 2 28 22 61 44 78 52 132 56 200 12z"/>
<path d="M8819 5977 c-101 -38 -239 -197 -270 -311 -15 -57 -13 -138 6 -182
20 -49 77 -109 130 -137 57 -30 164 -30 223 1 23 12 42 27 42 33 0 5 -9 28
-21 50 -15 31 -24 39 -37 34 -99 -41 -151 -36 -201 20 -69 78 -45 178 73 303
60 64 92 82 143 82 82 0 145 -70 141 -155 l-2 -50 47 -17 c25 -10 49 -13 52
-8 15 24 23 109 14 152 -12 56 -70 126 -135 164 -54 32 -150 41 -205 21z"/>
<path d="M9253 5768 c-14 -18 -311 -540 -318 -560 -5 -11 7 -23 41 -42 26 -15
51 -23 55 -19 8 10 329 571 329 577 0 4 -86 56 -93 56 -3 0 -9 -6 -14 -12z"/>
<path d="M11326 5630 c-114 -49 -211 -91 -213 -94 -9 -8 31 -96 43 -96 6 0 44
14 83 32 39 17 73 29 75 27 2 -2 52 -119 111 -259 59 -140 108 -256 109 -257
1 -1 97 38 105 43 3 3 -61 157 -183 441 l-35 81 80 34 c43 18 79 37 79 43 0
16 -32 95 -39 95 -3 -1 -100 -41 -215 -90z"/>
<path d="M9272 5409 c-68 -166 -126 -307 -128 -314 -3 -7 15 -21 45 -34 27
-11 52 -21 54 -21 3 0 24 47 48 105 24 58 48 105 54 105 5 0 46 -14 90 -31 96
-37 153 -36 214 4 77 51 127 183 102 266 -23 80 -52 98 -346 217 -6 2 -66
-131 -133 -297z m257 126 c65 -24 111 -64 111 -97 -1 -42 -37 -106 -71 -123
-31 -16 -34 -16 -103 10 -39 15 -74 30 -78 34 -3 3 8 42 26 86 18 44 35 88 39
98 4 10 11 17 15 15 4 -2 32 -12 61 -23z"/>
<path d="M9835 5518 c-2 -7 -38 -147 -80 -311 -42 -164 -79 -305 -81 -312 -4
-10 8 -17 38 -25 23 -6 50 -13 58 -15 12 -4 32 60 98 318 45 177 83 325 82
328 0 7 -78 29 -100 29 -6 0 -13 -6 -15 -12z"/>
<path d="M11014 5518 l-51 -9 25 -127 c66 -343 67 -381 19 -430 -18 -18 -39
-26 -77 -30 -44 -4 -54 -1 -76 19 -43 40 -51 67 -94 295 -23 121 -43 221 -45
222 -2 2 -29 -2 -60 -8 -45 -9 -55 -15 -51 -28 3 -9 24 -116 46 -237 45 -236
67 -296 125 -340 96 -74 275 -42 348 62 47 66 47 136 3 373 -48 256 -47 250
-54 249 -4 -1 -30 -6 -58 -11z"/>
<path d="M9976 5459 c-15 -75 -14 -76 75 -84 56 -5 82 -12 86 -22 3 -7 -9
-133 -27 -279 -17 -146 -29 -268 -26 -271 2 -3 29 -6 58 -7 l52 -1 33 265 c17
146 32 271 32 279 1 9 10 12 34 8 17 -3 57 -9 88 -12 l57 -7 7 52 c4 28 5 53
4 55 -4 3 -426 55 -451 55 -9 0 -18 -13 -22 -31z"/>
</g>
</svg>
