 <svg version="1.0" xmlns="http://www.w3.org/2000/svg"  width="300.000000pt" height="338.000000pt" viewBox="0 0 300.000000 338.000000"  preserveAspectRatio="xMidYMid meet">  <g transform="translate(0.000000,338.000000) scale(0.100000,-0.100000)" fill="#000000" stroke="none"> <path d="M1690 3057 c-30 -13 -84 -42 -119 -65 -81 -53 -112 -54 -202 -7 -75 39 -124 44 -160 18 -13 -10 -33 -23 -44 -29 -31 -17 -32 -44 -2 -44 14 0 32 -3 41 -6 9 -3 16 -1 16 5 0 6 -16 11 -36 11 -24 0 -34 4 -32 13 6 17 46 21 63 7 22 -18 15 -60 -10 -61 -37 -3 -90 3 -149 16 -68 16 -89 10 -131 -35 -16 -18 -54 -50 -83 -72 -29 -21 -63 -56 -76 -77 -14 -21 -50 -66 -81 -100 -32 -33 -53 -61 -49 -61 16 0 59 35 62 49 2 8 22 36 45 64 43 51 72 80 178 176 l60 55 77 -15 c42 -8 104 -14 137 -13 52 1 63 -2 78 -22 17 -23 17 -23 -26 -29 -24 -4 -81 0 -132 9 -118 21 -119 21 -157 -13 -18 -15 -51 -37 -73 -49 -39 -20 -167 -141 -167 -158 0 -5 -4 -15 -10 -22 -21 -25 1 -23 39 5 22 15 50 45 64 66 13 21 32 43 42 49 39 20 27 -3 -32 -64 -70 -72 -78 -88 -22 -44 7 6 19 11 25 11 19 0 61 38 91 83 15 23 29 42 30 42 2 0 5 -7 9 -15 6 -17 -49 -85 -70 -85 -8 0 -14 -4 -14 -10 0 -5 4 -10 8 -10 15 0 80 65 95 96 18 35 47 63 47 45 0 -23 -41 -92 -58 -98 -18 -7 -32 -22 -32 -37 0 -5 11 1 25 14 16 15 25 19 25 10 0 -9 9 -5 25 10 16 15 25 19 25 10 0 -8 11 -3 28 13 33 31 44 34 36 10 -3 -10 10 -1 30 19 27 29 45 38 75 40 25 2 37 7 34 15 -4 9 -9 9 -23 1 -14 -9 -22 -9 -33 0 -12 10 -20 6 -45 -25 -17 -21 -31 -32 -32 -25 0 7 9 20 20 29 11 10 20 21 20 26 0 5 -7 3 -16 -4 -15 -12 -16 -11 -9 11 l7 25 -27 -25 c-23 -21 -27 -22 -21 -6 5 16 4 17 -8 7 -8 -7 -12 -19 -9 -27 6 -15 -41 -84 -58 -84 -12 0 6 37 34 68 11 12 15 22 9 22 -6 0 -9 7 -5 17 8 19 -9 12 -44 -20 -24 -21 -32 -11 -10 12 6 7 -6 1 -28 -14 -22 -15 -39 -30 -38 -34 1 -5 -19 -28 -44 -52 -45 -43 -45 -43 -23 -9 13 19 30 39 37 43 7 4 13 13 13 19 0 15 89 118 103 118 8 0 7 -4 -1 -12 -23 -23 -12 -31 12 -9 14 14 26 18 30 12 4 -5 13 -8 21 -4 10 3 15 -1 16 -13 0 -11 3 -14 6 -6 2 6 16 12 30 12 19 0 24 -4 19 -16 -5 -13 -3 -14 6 -7 7 6 40 10 73 9 33 -1 65 2 71 6 15 11 38 -42 24 -56 -7 -7 -10 -4 -10 9 0 15 -3 16 -12 7 -10 -10 -10 -14 0 -21 9 -6 10 -15 1 -39 -6 -18 -15 -32 -20 -32 -5 0 -9 -4 -9 -10 0 -19 19 -10 26 12 l6 21 19 -24 19 -24 6 22 c6 20 8 21 28 8 11 -8 30 -14 41 -13 28 1 165 -78 195 -113 39 -46 150 -52 150 -8 0 16 3 18 19 9 25 -13 130 4 124 21 -1 3 12 6 29 6 18 0 34 5 36 11 2 7 11 12 21 12 9 0 25 6 35 13 15 11 6 16 -71 41 -111 36 -138 50 -188 97 -22 21 -53 50 -70 64 -20 18 -24 25 -11 21 16 -6 17 -4 6 9 -17 21 -3 19 36 -6 28 -17 33 -25 28 -45 -4 -15 -2 -24 6 -24 6 0 8 5 4 11 -4 7 1 7 16 -1 16 -9 20 -9 15 -1 -5 8 1 10 21 5 19 -5 25 -4 20 5 -9 14 0 14 26 0 16 -9 19 -8 13 2 -6 9 -3 10 8 6 55 -22 54 -22 35 0 -26 28 -22 38 7 19 31 -20 41 -21 25 -1 -8 9 -9 15 -2 15 6 0 14 -4 17 -10 3 -5 11 -10 17 -10 7 0 7 4 -1 13 -6 8 -9 16 -6 19 3 2 -6 15 -20 28 -28 26 -34 17 -8 -12 9 -10 11 -18 5 -18 -6 0 -14 4 -17 10 -3 5 -16 15 -28 21 -21 11 -21 11 2 -14 23 -26 23 -26 2 -24 -11 1 -21 5 -21 9 0 4 -10 13 -22 19 -23 11 -23 11 1 -15 32 -34 21 -44 -18 -17 -21 15 -31 18 -34 9 -4 -10 -7 -11 -18 0 -7 6 -18 12 -23 12 -6 -1 3 -12 19 -26 29 -25 29 -25 5 -19 -29 8 -82 54 -75 65 3 5 -2 11 -11 14 -22 8 -26 8 -19 -4 4 -7 -3 -8 -22 -4 -25 7 -27 6 -14 -9 16 -20 1 -23 -18 -4 -11 10 -12 9 -6 -2 6 -10 2 -12 -16 -6 -29 9 -45 22 -36 31 4 4 13 1 22 -6 13 -11 14 -10 9 4 -4 11 -1 16 11 16 9 0 13 5 10 10 -3 6 3 10 14 10 12 0 21 5 21 11 0 6 9 9 20 6 13 -3 20 0 20 9 0 29 96 30 129 0 9 -9 21 -16 26 -16 5 0 0 7 -11 15 -28 21 -5 17 36 -6 33 -19 34 -20 7 -14 -20 4 -27 2 -22 -5 4 -6 -11 -2 -34 9 -50 26 -64 27 -31 1 35 -27 21 -33 -23 -10 -20 11 -39 15 -42 10 -3 -5 4 -14 15 -20 11 -6 20 -17 20 -24 0 -8 7 -17 16 -20 25 -10 29 -7 9 7 -16 13 -15 14 16 17 19 1 48 3 66 3 18 0 30 4 27 9 -3 4 1 8 8 8 15 -1 67 -29 54 -30 -5 0 -1 -9 9 -20 14 -15 15 -20 4 -20 -8 0 6 -13 31 -29 50 -32 66 -33 29 -2 -37 31 -16 25 71 -21 70 -36 89 -42 162 -46 71 -3 81 -2 65 9 -15 13 -14 14 17 16 19 1 45 7 57 14 21 11 15 14 -63 30 -103 20 -162 46 -307 134 -204 122 -249 134 -351 92z m191 -22 c25 -12 84 -45 131 -73 119 -72 220 -118 308 -141 l75 -19 -58 -1 c-39 -1 -76 7 -117 23 -83 34 -75 22 13 -19 l72 -34 -50 6 c-58 7 -122 37 -220 103 -128 86 -181 112 -244 117 -56 5 -65 3 -150 -41 -49 -25 -100 -46 -113 -47 -21 -1 -21 -2 -3 -8 27 -9 99 -45 105 -52 3 -3 16 -12 29 -19 17 -9 20 -14 11 -20 -8 -5 -2 -10 19 -15 17 -4 29 -11 25 -16 -3 -5 3 -13 13 -17 10 -4 37 -20 60 -35 23 -16 80 -41 128 -56 56 -18 81 -31 70 -35 -29 -11 -54 -7 -115 19 -33 14 -67 25 -77 24 -12 -1 -10 -3 7 -9 14 -4 19 -8 12 -9 -15 -1 -6 -21 9 -21 6 0 7 5 4 10 -9 14 -6 13 61 -15 48 -20 54 -24 31 -25 -16 0 -38 5 -50 11 -22 12 -22 12 -3 -10 23 -26 6 -28 -32 -4 l-27 17 19 -22 20 -22 -48 3 c-33 3 -49 0 -53 -9 -2 -7 -12 -10 -21 -7 -13 6 -13 8 4 14 17 6 16 8 -8 14 -32 8 -37 25 -8 25 11 0 20 -5 20 -11 0 -5 5 -7 10 -4 6 4 7 11 4 17 -4 7 -2 8 5 4 6 -4 9 -11 6 -16 -3 -4 2 -10 10 -13 9 -4 12 -1 8 9 -3 8 1 14 11 14 10 0 13 6 10 15 -4 8 -10 15 -16 15 -5 0 -6 -5 -2 -11 5 -8 -1 -10 -19 -5 -14 3 -38 1 -54 -6 -15 -6 -32 -10 -37 -9 -5 1 -4 -5 4 -13 7 -9 19 -16 28 -16 8 0 12 -3 9 -7 -4 -3 0 -15 10 -25 16 -17 15 -18 -8 -15 -13 2 -22 7 -21 11 2 5 -13 23 -33 42 -27 24 -47 34 -70 34 -40 0 -145 52 -190 95 -36 33 -46 59 -20 49 24 -9 18 2 -11 21 -25 16 -26 16 -19 -4 11 -36 -2 -23 -33 32 -16 28 -39 61 -51 71 -11 11 -21 27 -21 36 0 10 -7 23 -15 30 -25 21 -17 39 21 46 30 5 50 0 106 -27 38 -18 74 -39 79 -45 14 -17 91 8 154 50 73 48 111 66 158 75 50 10 77 5 138 -24z m134 -165 c3 -6 1 -10 -5 -10 -6 0 -8 -5 -4 -12 5 -7 3 -8 -5 -4 -7 5 -10 11 -7 14 3 3 -2 14 -11 25 -17 19 -17 20 4 8 12 -6 25 -16 28 -21z m-171 -35 c11 -8 15 -15 10 -15 -6 0 -19 7 -30 15 -10 8 -14 14 -9 14 6 0 19 -6 29 -14z m-924 -55 c0 -10 -58 -50 -72 -50 -20 0 -4 20 30 38 20 11 38 20 40 21 1 0 2 -4 2 -9z m156 -59 c-32 -31 -34 -18 -4 29 18 29 23 32 26 16 2 -11 -7 -29 -22 -45z m313 -13 c2 -15 -19 -8 -39 12 -20 20 -20 20 -20 0 0 -11 -5 -20 -10 -20 -17 0 -22 27 -10 50 11 21 11 21 45 -7 18 -15 34 -31 34 -35z m-559 13 c0 -13 -92 -113 -98 -107 -5 5 85 116 94 116 2 0 4 -4 4 -9z m785 -112 c12 -19 -2 -21 -32 -5 l-28 15 27 1 c15 0 30 -5 33 -11z m45 -30 c0 -5 -6 -7 -12 -3 -7 4 -4 -2 6 -14 11 -12 14 -22 8 -22 -6 0 -14 5 -17 10 -4 6 -10 8 -15 5 -11 -7 -23 12 -15 25 8 13 45 13 45 -1z"/> <path d="M1240 2980 c-22 -6 -23 -8 -7 -15 11 -4 23 -3 30 4 15 15 7 19 -23 11z"/> <path d="M1426 2906 c10 -8 24 -11 32 -9 18 7 7 16 -24 19 -24 3 -25 2 -8 -10z"/> <path d="M1450 2882 c0 -12 19 -26 26 -19 2 2 -2 10 -11 17 -9 8 -15 8 -15 2z"/> <path d="M1417 2863 c5 -12 3 -14 -8 -7 -16 10 -39 14 -39 8 0 -3 7 -18 15 -33 8 -16 11 -31 8 -35 -4 -3 -1 -6 6 -6 9 0 11 6 6 18 -12 31 -14 53 -4 47 5 -4 7 -10 4 -15 -3 -5 -1 -11 5 -15 5 -3 10 2 10 12 0 14 2 15 9 4 7 -10 9 -7 8 12 -1 15 -7 27 -14 27 -7 0 -10 -7 -6 -17z"/> <path d="M1360 2810 c0 -5 5 -10 11 -10 5 0 7 5 4 10 -3 6 -8 10 -11 10 -2 0 -4 -4 -4 -10z"/> <path d="M1710 2934 c0 -6 7 -17 15 -24 8 -7 12 -16 9 -21 -3 -5 1 -9 9 -9 7 0 14 7 14 15 0 8 -2 13 -5 10 -2 -2 -13 6 -23 18 -10 12 -18 17 -19 11z"/> <path d="M1712 2834 c10 -10 20 -15 24 -12 3 4 -5 12 -18 18 -22 12 -22 12 -6 -6z"/> <path d="M1260 2790 c-1 -8 -2 -19 -1 -24 1 -5 -3 -22 -10 -39 -10 -24 -14 -26 -21 -13 -5 9 -6 22 -3 29 4 6 -2 1 -13 -12 -21 -26 -45 -21 -35 6 6 14 2 14 -20 -3 -14 -10 -27 -22 -27 -26 0 -12 18 -9 26 4 5 7 10 3 16 -13 9 -22 10 -23 22 -6 16 21 26 22 26 1 0 -19 21 -14 30 7 4 8 11 23 17 34 5 11 6 31 2 45 -4 14 -8 18 -9 10z"/> <path d="M1446 2489 c-22 -5 -69 -24 -105 -41 -90 -44 -229 -183 -290 -292 -90 -159 -151 -401 -151 -598 0 -334 136 -674 320 -801 14 -10 3 -6 -25 9 -27 15 -56 32 -63 37 -7 5 -15 7 -18 4 -10 -10 9 -78 32 -112 13 -19 21 -35 18 -35 -10 0 -159 117 -187 148 -33 35 -39 91 -13 140 20 39 20 95 0 155 -12 35 -27 55 -58 76 l-42 29 -14 -51 c-7 -29 -13 -74 -14 -102 -1 -42 5 -57 32 -94 31 -42 41 -68 23 -57 -5 3 -35 45 -68 93 -53 77 -59 93 -55 125 3 29 12 42 36 57 17 11 42 31 55 45 23 24 23 27 16 165 l-7 140 -47 -24 c-54 -27 -89 -58 -100 -88 -20 -51 -22 -124 -7 -191 9 -37 14 -71 11 -76 -18 -29 140 -270 176 -270 17 0 9 58 -12 85 -31 39 -42 106 -24 148 8 19 11 37 8 41 -4 3 0 6 9 6 8 0 24 -10 36 -23 44 -47 54 -122 24 -185 -10 -20 -19 -54 -20 -74 -2 -35 3 -44 65 -105 38 -38 99 -86 137 -108 38 -21 64 -41 58 -43 -24 -8 -163 97 -262 198 -95 96 -184 216 -209 282 -15 39 -31 45 -127 50 -75 3 -96 8 -125 28 -54 39 -84 87 -113 188 l-15 54 42 -25 c44 -26 128 -72 209 -114 27 -14 56 -37 64 -52 9 -14 12 -17 8 -6 -23 69 -35 354 -18 415 l11 35 7 -32 c4 -17 4 -49 1 -70 -5 -33 -3 -30 14 17 10 29 26 59 34 65 8 5 14 12 14 15 0 22 18 49 45 67 37 26 48 18 48 -36 0 -65 -22 -109 -93 -186 l-69 -75 5 -73 c3 -39 13 -94 21 -121 9 -26 14 -51 12 -55 -2 -3 6 -15 17 -26 20 -20 20 -20 13 0 -14 38 -35 140 -42 202 l-7 62 68 73 c37 40 74 87 81 105 8 19 14 68 14 118 l0 86 -59 -41 c-43 -30 -65 -54 -81 -88 l-21 -47 5 58 c6 73 21 96 94 146 73 49 148 132 157 172 4 17 5 33 2 35 -3 4 -79 -29 -170 -74 -15 -7 24 62 52 91 14 16 56 46 92 68 59 34 189 161 189 184 0 12 -102 -5 -146 -24 -68 -30 -224 -247 -224 -311 0 -10 -4 -21 -9 -24 -4 -3 -6 6 -3 19 6 33 -18 185 -29 185 -5 0 -9 -9 -9 -20 0 -11 -12 -54 -26 -96 -22 -63 -25 -84 -19 -127 4 -29 8 -79 8 -112 -1 -66 -30 -250 -32 -198 -2 65 -31 113 -95 160 -60 44 -60 44 -69 21 -19 -52 -20 -143 -2 -182 20 -41 81 -98 137 -127 36 -18 38 -22 38 -67 0 -26 5 -65 10 -87 5 -22 8 -40 7 -41 -1 -1 -69 35 -152 81 -148 83 -182 97 -172 73 2 -7 17 -53 31 -102 23 -74 35 -97 74 -138 54 -56 87 -67 199 -68 65 0 72 -2 79 -22 9 -31 61 -115 101 -165 38 -48 35 -55 -8 -19 -16 13 -51 29 -79 35 -69 15 -187 14 -196 -1 -12 -19 99 -115 148 -129 24 -6 86 -9 138 -8 l96 4 56 -60 c36 -39 98 -86 176 -135 67 -41 117 -76 112 -78 -4 -2 -48 22 -97 52 -48 30 -110 60 -138 66 -56 13 -285 4 -285 -11 0 -16 104 -92 165 -120 33 -16 86 -35 118 -43 52 -14 67 -14 129 -1 126 27 181 21 280 -27 47 -24 87 -46 87 -49 1 -3 -33 -31 -75 -62 -42 -32 -72 -57 -67 -57 4 0 30 7 57 15 27 8 65 15 85 15 28 0 42 7 61 31 l26 31 102 -41 c111 -45 139 -49 149 -25 9 24 -13 38 -112 75 -49 18 -92 34 -95 37 -3 2 11 17 30 33 72 60 83 64 255 69 148 5 164 8 211 32 80 42 85 55 16 47 -66 -8 -157 -11 -151 -5 3 3 35 10 73 16 42 7 98 26 147 50 80 41 98 55 57 45 -13 -3 -52 -9 -88 -13 l-66 -8 0 33 c0 18 4 33 8 33 4 0 8 -7 8 -16 0 -11 8 -14 28 -12 22 2 27 8 27 31 -1 24 4 29 40 38 102 26 144 41 190 68 50 29 159 120 152 127 -2 2 -28 -9 -59 -26 -30 -16 -95 -40 -144 -54 -49 -13 -98 -27 -109 -31 -14 -5 -10 1 10 18 20 17 52 29 95 37 73 13 129 42 179 93 l34 36 -89 -24 c-49 -13 -97 -26 -107 -31 -17 -6 -18 -5 -6 13 8 14 22 20 43 19 23 -1 31 4 34 18 2 11 -3 25 -12 32 -14 10 -14 13 -2 24 9 6 19 9 25 6 30 -19 60 27 36 54 -15 17 -14 19 19 30 74 24 145 107 182 213 16 46 18 47 -80 -40 -33 -29 -62 -51 -64 -48 -3 2 13 25 36 49 22 24 45 61 50 83 14 54 21 143 10 137 -4 -3 -8 -13 -8 -24 0 -17 -20 -50 -94 -155 -23 -32 -27 -35 -23 -15 4 14 7 30 7 36 0 7 9 14 20 17 14 3 20 14 20 31 0 19 -5 26 -20 26 -11 0 -20 4 -20 9 0 5 8 7 18 4 26 -6 49 24 35 45 -6 10 -18 16 -27 16 -24 -2 -20 8 19 52 57 63 85 129 85 198 l0 60 -36 -60 c-20 -32 -45 -74 -56 -91 -29 -48 -30 -40 -3 20 25 58 77 219 71 224 -12 12 -126 -186 -126 -219 0 -9 -3 -8 -10 2 -15 23 -12 37 11 59 23 22 23 66 -1 66 -25 0 -30 18 -9 33 25 17 24 39 -1 54 -15 9 -20 24 -20 53 0 24 -15 78 -36 129 -27 65 -35 98 -31 123 9 56 -9 28 -23 -35 -6 -32 -10 -88 -8 -125 1 -37 2 -67 1 -67 -2 0 -19 31 -38 70 -29 58 -33 73 -24 89 10 15 8 24 -10 50 -24 34 -48 40 -58 15 -5 -12 -13 -9 -42 20 -20 19 -52 42 -71 50 -37 15 -180 33 -180 23 0 -4 14 -14 31 -22 17 -9 57 -41 90 -71 33 -30 73 -57 89 -61 20 -4 30 -11 30 -24 0 -27 35 -43 54 -24 13 14 17 13 36 -7 12 -13 31 -41 42 -62 19 -37 19 -38 1 -31 -10 4 -43 14 -73 22 -30 8 -67 21 -82 29 -38 20 -40 18 -17 -20 31 -52 97 -124 122 -132 12 -4 42 -15 66 -26 36 -15 41 -21 31 -33 -16 -20 6 -48 32 -42 10 3 20 2 23 -3 3 -4 -5 -10 -16 -13 -15 -4 -20 -12 -17 -29 2 -18 9 -23 31 -23 23 1 27 -3 27 -28 l0 -29 -53 48 c-30 27 -74 64 -99 81 l-46 32 24 -57 c16 -39 38 -70 71 -99 26 -24 44 -43 39 -43 -4 0 -34 23 -66 50 -32 28 -60 50 -63 50 -8 0 8 -51 26 -86 16 -31 60 -74 119 -117 32 -24 36 -30 26 -46 -6 -11 -8 -26 -3 -37 4 -11 7 -29 6 -42 -2 -16 4 -25 18 -29 18 -4 21 -13 20 -52 l0 -46 -13 41 c-7 23 -25 57 -39 75 -14 19 -37 60 -51 92 -14 31 -28 57 -31 57 -14 0 8 -138 30 -193 28 -71 24 -67 -31 24 l-42 71 -7 -50 c-11 -79 10 -156 57 -216 31 -39 37 -52 25 -54 -17 -3 -30 -29 -22 -42 3 -4 -2 -10 -10 -13 -11 -5 -15 6 -17 46 l-3 52 -23 -33 c-13 -18 -32 -56 -42 -85 -15 -41 -19 -46 -20 -24 0 15 7 43 14 62 19 45 5 44 -33 -2 -40 -48 -71 -140 -78 -231 -5 -62 -8 -72 -23 -67 -43 14 -72 -42 -34 -63 12 -7 13 -11 5 -17 -7 -4 -18 1 -25 11 -7 9 -18 14 -25 10 -9 -6 -10 0 -5 21 l7 28 -29 -25 c-16 -14 -10 -4 13 22 102 114 184 347 202 575 33 419 -135 829 -403 984 -108 62 -254 85 -370 58z m268 -38 c78 -27 140 -69 209 -138 75 -76 109 -124 156 -219 183 -369 158 -857 -62 -1186 -58 -87 -91 -122 -170 -182 -27 -20 -68 -63 -92 -95 -31 -42 -69 -76 -127 -114 l-83 -55 -78 40 c-79 41 -92 54 -151 143 -47 73 -52 83 -22 53 33 -35 66 -52 140 -73 113 -33 288 -14 332 36 19 22 19 22 -1 14 -206 -81 -384 -49 -543 99 -311 291 -390 877 -177 1311 103 211 256 349 427 385 63 13 175 5 242 -19z m411 -100 c44 -21 135 -102 135 -121 0 -6 -3 -9 -7 -7 -21 12 -103 47 -111 47 -8 0 -102 88 -102 96 0 10 49 2 85 -15z m-1095 -69 c0 -21 -78 -95 -133 -128 -34 -20 -75 -48 -91 -62 l-29 -27 19 30 c38 62 104 143 131 160 15 10 41 22 58 26 42 10 45 10 45 1z m1234 -7 c-5 -11 -2 -13 10 -9 12 4 16 0 16 -15 0 -12 -4 -21 -9 -21 -12 0 -41 46 -34 54 12 12 22 6 17 -9z m-24 -61 c0 -2 -7 -4 -15 -4 -8 0 -15 4 -15 10 0 5 7 7 15 4 8 -4 15 -8 15 -10z m206 -191 c-3 -59 -7 -78 -24 -93 -12 -11 -23 -16 -27 -11 -3 5 1 11 7 14 19 7 -15 33 -82 63 -54 25 -104 64 -120 95 -8 15 -3 15 63 2 40 -9 78 -20 86 -27 12 -9 13 -8 6 3 -5 10 -4 12 3 7 7 -4 12 -13 12 -19 1 -7 6 -25 13 -40 10 -24 12 -11 10 85 l-3 113 30 -59 c26 -53 29 -68 26 -133z m-1760 -33 c4 -19 8 -51 8 -72 1 -20 4 -34 9 -31 4 2 7 10 7 18 0 8 5 25 12 39 8 20 14 23 24 15 10 -8 30 -3 80 20 36 17 68 31 70 31 28 0 -81 -120 -140 -154 -24 -14 -56 -40 -70 -57 l-26 -31 0 33 c0 17 -5 59 -11 93 -9 46 -8 72 1 105 13 48 25 45 36 -9z m1794 -15 c0 -8 -7 -15 -15 -15 -16 0 -20 12 -8 23 11 12 23 8 23 -8z m-20 -66 c0 -20 -15 -26 -25 -9 -9 15 3 43 15 35 5 -3 10 -15 10 -26z m98 -67 c-11 -34 -24 -62 -27 -62 -4 0 -6 -16 -6 -35 1 -19 -1 -35 -5 -35 -6 0 -50 -85 -50 -98 0 -4 12 13 27 38 36 62 112 160 123 160 19 0 -19 -78 -67 -138 -30 -36 -36 -52 -39 -105 -2 -34 -7 -78 -11 -97 -6 -30 -8 -24 -13 39 -7 81 2 67 -119 169 -28 24 -58 57 -67 74 -17 33 -13 32 44 -9 17 -13 37 -21 42 -18 6 4 9 1 8 -7 -2 -8 4 -12 16 -10 10 2 15 -1 12 -6 -3 -5 3 -17 14 -27 12 -11 20 -13 20 -6 0 6 -30 39 -66 74 -58 55 -105 117 -89 117 10 0 77 -51 118 -89 34 -32 37 -33 37 -13 0 29 16 28 24 0 6 -25 1 -33 69 109 11 24 22 42 23 40 2 -2 -6 -31 -18 -65z m-60 40 c2 -7 -2 -10 -12 -6 -9 3 -16 11 -16 16 0 13 23 5 28 -10z m-23 -23 c0 -7 -8 -15 -17 -17 -18 -3 -25 18 -11 32 10 10 28 1 28 -15z m-49 -16 c-10 -10 -19 5 -10 18 6 11 8 11 12 0 2 -7 1 -15 -2 -18z m-1916 -104 c38 -31 76 -101 65 -120 -4 -5 -2 -9 2 -9 10 0 33 -79 33 -111 0 -18 -7 -16 -61 22 -79 56 -102 89 -103 148 0 47 10 101 20 101 3 0 23 -14 44 -31z m2037 -164 c0 -8 -6 -15 -13 -15 -8 0 -11 6 -8 15 4 8 9 15 13 15 4 0 8 -7 8 -15z m-80 -15 c-3 -10 -1 -21 4 -24 5 -2 4 -3 -2 -2 -7 1 -16 12 -20 24 -6 17 -5 22 7 22 11 0 15 -6 11 -20z m-28 -149 c6 -19 11 -55 12 -80 0 -35 2 -41 9 -26 5 11 9 31 10 45 0 14 7 39 16 55 14 30 14 29 8 -20 -10 -82 -12 -93 -20 -107 -4 -7 9 2 29 19 21 18 52 40 70 49 17 9 40 23 50 32 15 13 17 13 17 0 0 -26 -80 -107 -125 -128 -40 -18 -75 -52 -75 -72 0 -4 7 -5 15 -2 8 4 15 1 15 -5 0 -14 -10 -14 -41 1 -18 8 -30 25 -37 53 -6 22 -22 51 -34 65 -28 29 -44 69 -53 128 -9 59 8 54 54 -18 21 -32 41 -56 45 -53 3 4 6 -4 6 -16 0 -20 26 -81 34 -81 2 0 -6 27 -16 60 -12 37 -24 58 -31 53 -6 -4 -8 0 -4 9 3 9 -1 37 -9 64 -23 78 -19 94 15 48 15 -21 33 -54 40 -73z m34 103 c3 -3 3 -13 0 -21 -5 -12 -7 -12 -14 -1 -15 23 -4 40 14 22z m67 -9 c0 -8 -4 -15 -10 -15 -5 0 -10 7 -10 15 0 8 5 15 10 15 6 0 10 -7 10 -15z m-1690 -57 c0 -24 2 -76 5 -116 5 -80 8 -75 -73 -145 -20 -17 -33 -37 -33 -55 -3 -48 -20 111 -19 175 2 89 11 114 59 151 23 17 47 32 52 32 6 0 10 -19 9 -42z m1755 21 c-4 -12 -21 -41 -39 -65 -17 -23 -39 -55 -49 -69 -25 -35 -32 -26 -14 16 14 33 92 139 103 139 3 0 2 -10 -1 -21z m-215 -273 c0 -17 -14 -29 -23 -20 -8 8 3 34 14 34 5 0 9 -6 9 -14z m-86 -31 c3 -9 3 -44 0 -78 l-5 -62 35 55 c35 52 51 94 22 54 -12 -15 -17 -16 -27 -7 -13 13 7 24 67 39 22 6 25 4 22 -12 -2 -11 -11 -18 -21 -18 -13 1 -16 -3 -12 -16 3 -10 -4 -29 -18 -46 -12 -16 -28 -41 -34 -56 l-12 -27 42 16 c41 15 127 33 127 27 0 -15 -88 -54 -143 -65 -50 -9 -76 -20 -98 -41 -16 -16 -27 -33 -24 -38 3 -6 0 -8 -7 -5 -7 2 -31 -12 -53 -31 l-40 -35 55 30 c30 17 87 37 125 46 39 8 81 18 93 21 35 7 19 -9 -30 -33 -44 -21 -138 -53 -157 -53 -17 0 -102 -41 -136 -65 -53 -38 -61 -37 -19 2 57 52 94 115 94 158 0 50 28 169 45 191 14 18 14 18 15 -1 4 -82 0 -186 -6 -197 -4 -7 7 1 25 17 33 30 33 30 26 101 -5 56 -3 78 11 107 19 40 29 45 38 22z m17 -88 c-8 -8 -11 -7 -11 4 0 20 13 34 18 19 3 -7 -1 -17 -7 -23z m93 -16 c-9 -10 -26 18 -18 30 5 9 9 8 14 -7 4 -10 6 -21 4 -23z m-177 -68 c-2 -21 -4 -6 -4 32 0 39 2 55 4 38 2 -18 2 -50 0 -70z m-1462 -88 c81 -38 95 -51 68 -59 -28 -8 -144 -5 -184 5 -34 9 -119 72 -119 89 0 5 36 7 81 5 67 -4 94 -11 154 -40z m1335 -53 c0 -13 -12 -22 -22 -16 -10 6 -1 24 13 24 5 0 9 -4 9 -8z m-134 -72 c-14 -17 -26 -36 -26 -42 0 -6 -28 -38 -62 -71 -35 -34 -55 -56 -46 -49 9 8 22 11 27 8 11 -7 81 24 81 36 0 4 -4 8 -10 8 -5 0 -10 -4 -10 -10 0 -5 -8 -10 -17 -10 -15 1 -14 4 7 21 14 12 25 24 25 28 1 11 50 81 57 81 15 0 20 -23 6 -31 -8 -4 -26 -18 -39 -29 l-24 -21 25 6 25 7 -23 -17 c-33 -24 -15 -36 33 -23 46 12 156 17 149 7 -3 -6 -29 -14 -74 -24 -3 -1 -32 -9 -65 -19 -33 -11 -69 -20 -80 -21 -57 -5 -115 -18 -115 -25 0 -5 15 -4 33 1 45 13 242 10 228 -4 -18 -18 -40 -21 -178 -23 -73 -1 -146 -7 -162 -12 -30 -11 -29 -9 21 56 28 37 57 70 63 74 7 4 48 37 91 73 82 68 104 77 60 25z m74 11 c0 -4 -3 -11 -7 -14 -8 -9 -34 13 -28 24 6 9 35 1 35 -10z m108 -12 c-2 -6 -8 -10 -13 -10 -5 0 -11 4 -13 10 -2 6 4 11 13 11 9 0 15 -5 13 -11z m-937 -51 c23 -18 60 -62 81 -98 46 -77 91 -118 170 -156 32 -15 53 -31 47 -35 -6 -3 -41 10 -78 30 -97 54 -141 69 -181 64 -33 -5 -34 -4 -16 10 19 14 18 15 -17 38 -38 25 -50 46 -20 35 15 -6 16 -5 1 11 -15 17 -68 117 -68 128 0 16 44 1 81 -27z m869 1 c0 -24 -23 -21 -28 4 -2 10 3 17 12 17 10 0 16 -9 16 -21z m-40 -18 c0 -8 -52 -31 -69 -31 -9 0 53 40 62 40 4 0 7 -4 7 -9z m-1005 -78 c17 -9 32 -19 35 -22 3 -3 31 -19 62 -36 31 -16 55 -32 53 -35 -2 -4 -29 -13 -59 -20 -71 -17 -146 -9 -221 24 -64 29 -155 86 -155 99 0 4 20 6 45 5 25 0 48 2 53 6 11 12 154 -4 187 -21z m850 7 c-3 -5 -11 -10 -16 -10 -6 0 -7 5 -4 10 3 6 11 10 16 10 6 0 7 -4 4 -10z m-256 -154 c-13 -13 -46 -49 -74 -80 -42 -47 -55 -56 -84 -56 l-34 0 34 36 c19 19 54 47 79 62 25 14 47 29 50 32 5 7 42 29 49 30 2 0 -7 -11 -20 -24z m11 -82 c22 -9 40 -20 40 -25 0 -8 -23 -3 -45 10 -11 6 -18 8 -40 10 -16 1 -21 21 -5 21 5 0 28 -7 50 -16z m100 -41 c54 -24 51 -35 -5 -16 -25 8 -45 19 -45 24 0 12 4 12 50 -8z"/> <path d="M1422 2411 c-154 -57 -271 -174 -358 -356 -147 -309 -146 -709 4 -1010 77 -156 173 -260 296 -320 203 -100 408 -50 580 142 59 66 131 197 165 297 128 389 51 844 -187 1097 -60 64 -90 87 -159 121 -81 40 -91 43 -187 45 -81 3 -112 -1 -154 -16z m283 -24 c71 -24 137 -66 183 -116 19 -20 46 -49 61 -66 54 -59 97 -144 156 -305 21 -57 34 -129 43 -235 11 -124 8 -207 -13 -345 -12 -77 -49 -179 -103 -284 -46 -89 -72 -126 -134 -188 -42 -43 -82 -78 -90 -78 -7 0 -24 -9 -38 -20 -14 -11 -32 -20 -41 -20 -9 0 -30 -7 -48 -16 -34 -17 -147 -23 -211 -11 -70 13 -163 69 -236 141 -70 69 -103 119 -163 241 -26 53 -36 75 -47 110 -23 66 -45 205 -50 310 -10 216 41 442 134 602 43 74 165 213 187 213 7 0 18 7 25 15 17 20 93 53 160 70 67 16 145 10 225 -18z"/> <path d="M1518 2340 c4 -44 7 -50 26 -50 29 0 46 18 46 50 0 33 -17 50 -49 50 -25 0 -26 -2 -23 -50z m52 0 c0 -27 -7 -35 -27 -27 -3 1 -7 14 -9 30 -1 21 3 27 17 27 14 0 19 -7 19 -30z"/> <path d="M1609 2356 c-17 -37 -4 -76 25 -76 32 0 48 22 44 62 -2 28 -7 34 -30 36 -22 3 -30 -2 -39 -22z m55 -30 c-7 -24 -24 -37 -36 -30 -13 8 -9 62 5 67 20 7 38 -14 31 -37z"/> <path d="M1417 2362 c-4 -6 -1 -28 8 -48 21 -52 20 -53 -24 -10 -51 50 -60 36 -34 -57 4 -16 2 -17 -16 -8 -11 6 -18 17 -15 25 3 7 -2 19 -10 26 -13 10 -20 9 -41 -4 -31 -20 -31 -27 0 -64 24 -29 24 -30 5 -47 -26 -23 -47 -10 -24 16 18 20 6 27 -13 8 -20 -20 -36 1 -17 22 26 29 11 33 -16 4 l-23 -25 38 -33 38 -33 28 30 c19 22 24 35 17 43 -15 19 0 35 22 23 23 -12 53 -2 46 16 -7 17 17 37 30 24 6 -6 23 -6 47 1 40 11 53 33 13 23 -21 -5 -25 -1 -38 37 -8 25 -17 38 -21 31z m-27 -73 c0 -5 -4 -9 -10 -9 -5 0 -10 7 -10 16 0 8 5 12 10 9 6 -3 10 -10 10 -16z m-78 -41 c-9 -9 -15 -9 -24 0 -10 10 -10 15 2 22 9 6 19 5 24 0 7 -7 6 -14 -2 -22z"/> <path d="M1717 2307 c-14 -23 -23 -46 -20 -51 3 -5 11 1 17 13 14 24 26 18 26 -13 0 -12 8 -26 18 -32 14 -9 22 -4 50 32 19 25 27 44 20 44 -7 0 -24 -17 -38 -38 -18 -27 -25 -33 -28 -20 -2 9 6 26 17 37 24 24 19 44 -14 59 -22 10 -26 7 -48 -31z m58 4 c3 -5 1 -13 -5 -16 -15 -9 -43 3 -35 15 8 13 32 13 40 1z"/> <path d="M1810 2243 c-23 -30 -23 -51 2 -66 40 -26 98 42 68 78 -19 23 -46 18 -70 -12z m60 -11 c0 -21 -18 -42 -37 -42 -20 0 -27 28 -13 45 18 21 50 19 50 -3z"/> <path d="M1483 2236 c-135 -44 -249 -188 -307 -390 -15 -49 -29 -121 -32 -160 -3 -39 -7 -86 -9 -105 -6 -62 15 -228 40 -316 35 -119 84 -212 151 -285 188 -202 429 -142 567 140 75 153 92 233 91 435 -1 150 -4 181 -27 267 -49 185 -149 333 -265 392 -63 32 -150 41 -209 22z m200 -36 c62 -31 129 -98 172 -172 19 -32 35 -63 35 -67 0 -4 7 -22 16 -40 19 -38 55 -181 48 -192 -2 -4 -1 -10 4 -13 4 -2 9 -69 11 -149 2 -118 -1 -160 -19 -238 -12 -52 -25 -103 -30 -114 -5 -11 -19 -44 -31 -72 -12 -29 -24 -53 -28 -53 -3 0 -12 -13 -19 -29 -21 -48 -104 -125 -165 -155 -87 -43 -175 -37 -262 17 -41 25 -76 57 -63 57 7 0 2 6 -11 13 -13 6 -32 28 -42 47 -11 19 -19 30 -19 25 -1 -19 -71 138 -86 194 -9 31 -20 72 -25 91 -6 19 -12 94 -14 165 -5 156 12 271 57 388 58 151 133 248 233 298 52 27 68 30 125 27 43 -2 81 -12 113 -28z"/> <path d="M1546 2148 c-9 -12 -16 -28 -16 -34 0 -12 -55 -39 -80 -39 -20 0 -26 -36 -8 -49 23 -17 42 -58 43 -91 0 -32 -1 -32 79 -19 28 5 37 3 32 -5 -4 -6 -4 -11 1 -10 28 5 36 -2 17 -16 -21 -16 -80 -20 -88 -6 -18 28 -76 -30 -76 -76 0 -15 -2 -16 -10 -3 -8 13 -10 12 -10 -2 0 -23 -160 -379 -210 -470 -20 -36 -11 -62 29 -85 31 -18 41 -20 50 -9 12 15 55 124 83 214 11 35 21 62 24 59 2 -2 0 -17 -6 -32 -15 -39 -9 -49 40 -64 30 -9 45 -9 55 -1 9 8 15 8 20 0 9 -14 78 -13 93 2 9 9 12 9 12 -1 0 -10 9 -12 32 -7 50 10 77 32 72 58 -2 13 2 5 11 -17 8 -22 19 -49 24 -60 5 -11 16 -40 26 -65 9 -25 21 -55 26 -67 11 -28 28 -29 73 -2 42 24 43 13 -30 174 -20 44 -44 100 -54 125 -10 25 -27 63 -38 85 -11 22 -32 67 -46 101 -14 34 -37 83 -51 109 -18 35 -22 51 -14 56 7 4 9 14 6 22 -3 9 -1 18 6 21 9 3 9 5 0 5 -7 1 -13 10 -13 22 0 11 5 17 10 14 6 -3 10 1 10 10 0 8 6 18 14 21 8 3 17 12 20 20 8 20 -4 46 -19 40 -6 -2 -18 0 -26 5 -12 7 -12 9 0 9 8 0 11 3 8 6 -4 4 -14 1 -24 -7 -11 -9 -14 -10 -9 -1 4 7 1 12 -8 12 -9 0 -16 7 -16 15 0 8 -4 15 -9 15 -5 0 -11 9 -14 20 -7 26 -22 25 -41 -2z m34 -14 c0 -17 21 -56 35 -66 6 -4 28 -8 50 -8 l40 0 -40 -34 c-39 -33 -40 -34 -29 -75 13 -46 9 -49 -26 -21 -32 25 -45 25 -82 -1 -16 -12 -31 -19 -33 -17 -3 2 1 21 7 41 11 36 10 38 -28 72 l-39 34 30 1 c59 1 73 10 86 55 12 41 29 52 29 19z m-70 -274 c0 -5 -47 -141 -105 -302 -58 -161 -108 -299 -110 -306 -7 -18 -71 22 -67 40 2 7 62 140 135 295 118 252 147 307 147 273z m255 -277 c72 -159 130 -291 130 -296 0 -4 -13 -16 -30 -27 -23 -15 -31 -17 -37 -6 -12 21 -218 594 -218 606 0 5 6 10 13 10 7 0 71 -129 142 -287z m-254 53 l-25 -223 -35 14 c-20 8 -37 16 -39 18 -2 2 5 34 16 72 11 37 36 130 57 206 21 75 40 137 44 137 4 0 -4 -101 -18 -224z m63 167 c3 -32 8 -101 11 -153 3 -52 8 -125 11 -162 l6 -68 -42 0 -42 0 6 63 c3 34 8 130 12 212 4 83 8 153 11 158 12 20 22 1 27 -50z m81 -152 c31 -112 54 -205 52 -207 -1 -2 -18 -10 -37 -18 l-35 -14 -26 216 c-23 194 -26 242 -13 230 2 -3 29 -96 59 -207z"/> <path d="M1434 1341 c-32 -14 -45 -28 -58 -62 -36 -88 -76 -221 -70 -231 4 -5 26 -7 53 -4 55 7 126 8 320 4 93 -2 145 0 147 7 3 6 -7 64 -20 130 -22 110 -27 121 -57 146 -30 24 -40 27 -94 24 -33 -2 -64 -4 -70 -4 -5 0 -32 2 -60 5 -36 3 -61 -1 -91 -15z m132 -22 c6 -5 9 -43 8 -96 l-3 -88 9 87 c4 48 11 92 15 98 10 16 120 13 135 -4 6 -8 17 -13 23 -10 8 3 21 -38 39 -123 14 -71 25 -128 24 -129 0 0 -45 3 -99 8 -59 6 -108 6 -124 1 -17 -6 -40 -6 -59 0 -19 6 -66 6 -123 0 -51 -5 -94 -6 -95 -3 -1 3 18 61 43 129 53 149 65 149 17 1 -19 -58 -33 -106 -31 -108 1 -2 16 11 33 28 27 26 37 30 87 30 61 0 95 -12 95 -34 0 -10 -10 -13 -37 -10 -21 3 -65 1 -98 -3 -43 -6 0 -8 153 -9 116 0 212 4 212 8 0 21 -33 194 -37 198 -3 3 -3 -11 0 -30 17 -97 19 -145 7 -134 -6 7 -16 47 -21 90 -6 43 -12 81 -15 84 -6 5 5 -115 11 -137 3 -9 -14 -12 -61 -11 -48 1 -69 -3 -83 -17 -18 -16 -22 -16 -43 -1 -14 10 -43 16 -80 16 -32 0 -58 3 -58 8 0 4 9 40 20 81 10 40 15 70 11 65 -4 -5 -16 -40 -26 -79 -20 -80 -36 -116 -43 -97 -6 19 47 168 66 185 28 25 99 29 128 6z m187 -200 c9 -12 17 -16 20 -9 3 6 4 5 3 -2 -2 -10 -30 -13 -104 -13 -56 0 -102 2 -102 4 0 3 7 13 17 23 12 14 31 18 84 18 57 0 70 -3 82 -21z"/> <path d="M1335 1269 c-4 -6 -5 -12 -2 -15 2 -3 7 2 10 11 7 17 1 20 -8 4z"/> <path d="M1904 2178 c-21 -12 -44 -37 -44 -50 0 -4 9 -17 20 -28 17 -17 23 -18 39 -8 10 6 17 18 14 25 -7 19 -23 16 -23 -4 0 -16 -1 -16 -17 1 -17 16 -17 18 6 37 18 15 27 17 37 8 8 -6 12 -15 9 -19 -3 -5 -1 -11 4 -14 15 -10 23 12 12 33 -14 25 -33 31 -57 19z"/> <path d="M1159 2148 c-12 -22 -5 -31 39 -57 11 -6 11 -13 1 -34 -15 -33 -33 -24 -25 12 6 23 5 24 -7 9 -13 -17 -37 -25 -37 -12 0 3 5 14 10 24 6 10 6 21 1 24 -6 4 -31 -32 -36 -54 0 -3 -8 -18 -17 -35 l-16 -30 49 -22 c27 -12 49 -17 49 -12 0 5 -7 12 -15 15 -10 4 -13 14 -8 32 4 17 2 23 -6 18 -6 -4 -11 -14 -11 -22 0 -9 -6 -14 -12 -11 -12 4 -14 45 -3 55 2 3 21 -6 42 -18 22 -13 39 -18 41 -11 2 6 14 26 28 46 29 43 30 66 6 88 -26 23 -59 21 -73 -5z m75 -17 c4 -5 3 -16 0 -25 -5 -13 -10 -12 -35 6 -22 16 -26 25 -18 35 11 13 41 4 53 -16z"/> <path d="M1947 2096 c-50 -31 -57 -40 -24 -32 30 7 32 4 17 -24 -12 -23 -2 -53 15 -46 16 6 30 -25 15 -34 -14 -8 -1 -43 14 -37 6 2 22 7 36 11 23 7 22 5 -9 -22 -43 -37 -28 -47 35 -25 28 10 42 19 32 21 -9 2 -26 -2 -37 -7 -35 -19 -37 -11 -3 15 17 14 32 32 32 40 0 17 1 17 -45 -2 -50 -20 -53 -13 -10 20 46 36 37 49 -28 41 -46 -7 -50 -6 -39 8 8 9 23 17 35 19 26 4 34 35 15 60 -12 16 -16 16 -51 -6z m46 -21 c8 -19 -13 -31 -24 -14 -13 20 -11 29 5 29 8 0 16 -7 19 -15z m23 -80 c-11 -8 -22 -12 -25 -9 -6 6 19 24 34 24 6 -1 1 -7 -9 -15z"/> <path d="M1050 1934 c-6 -14 -10 -29 -10 -33 0 -7 91 -35 94 -29 16 27 24 58 15 58 -6 0 -13 -9 -16 -20 -3 -11 -12 -20 -19 -20 -10 0 -13 7 -8 25 4 15 2 25 -5 25 -6 0 -11 -9 -11 -21 0 -12 -5 -19 -12 -16 -7 2 -12 16 -10 31 4 33 -6 34 -18 0z"/> <path d="M2038 1871 c-46 -15 -47 -17 -35 -41 15 -29 33 -35 70 -21 21 8 27 17 27 40 0 16 -3 32 -7 34 -5 2 -29 -3 -55 -12z m40 -38 c-13 -17 -55 -17 -61 0 -5 16 55 38 65 23 4 -6 2 -16 -4 -23z"/> <path d="M1036 1865 c-29 -30 -20 -53 24 -60 49 -8 43 -25 -10 -25 -57 0 -57 -16 0 -45 27 -14 50 -21 50 -15 0 5 -4 10 -10 10 -5 0 -10 9 -10 20 0 11 7 20 15 20 20 0 32 68 14 85 -24 23 -56 27 -73 10z m64 -20 c17 -20 5 -33 -25 -27 -28 5 -39 17 -30 32 9 15 41 12 55 -5z m-30 -85 c0 -5 -6 -10 -14 -10 -8 0 -18 5 -21 10 -3 6 3 10 14 10 12 0 21 -4 21 -10z"/> <path d="M2085 1799 c-11 -4 -33 -8 -49 -8 -21 -1 -27 -5 -22 -17 3 -9 6 -24 6 -35 0 -10 5 -19 11 -19 6 0 9 12 7 27 -2 15 2 28 10 30 7 3 12 -5 12 -21 0 -14 5 -26 11 -26 7 0 9 10 7 24 -3 15 0 27 8 30 7 3 14 -4 16 -16 2 -12 8 -23 14 -25 7 -2 9 8 6 27 -5 36 -10 40 -37 29z"/> <path d="M1006 1704 c-28 -28 -20 -51 22 -58 59 -9 62 -8 62 24 0 45 -52 66 -84 34z m62 -16 c20 -20 14 -28 -23 -28 -22 0 -35 5 -35 13 0 28 36 37 58 15z"/> <path d="M2030 1676 c0 -36 15 -48 56 -44 36 3 39 6 42 36 l3 33 -50 -2 c-44 -2 -51 -5 -51 -23z m88 -8 c-11 -33 -68 -36 -68 -3 0 11 10 15 36 15 23 0 34 -4 32 -12z"/> <path d="M990 1632 c0 -6 23 -12 50 -14 28 -1 50 0 50 5 0 4 -15 7 -34 7 -19 0 -41 3 -50 6 -9 3 -16 2 -16 -4z"/> <path d="M2046 1605 c-19 -20 -20 -26 -3 -49 16 -22 75 -18 91 7 26 41 -52 78 -88 42z m74 -24 c0 -26 -38 -38 -57 -18 -21 20 -8 37 28 37 22 0 29 -5 29 -19z"/> <path d="M991 1591 c-7 -13 -7 -23 2 -35 15 -21 43 -12 50 15 3 10 11 19 17 19 8 0 10 -9 6 -26 -5 -19 -3 -25 6 -22 7 3 13 18 13 34 0 40 -40 48 -55 10 -13 -34 -34 -35 -26 -1 8 29 1 33 -13 6z"/> <path d="M1071 1531 c-8 -5 -29 -7 -48 -4 -32 6 -33 5 -33 -32 l0 -38 43 5 c41 5 43 4 45 -23 2 -20 -2 -29 -13 -29 -8 0 -15 9 -15 20 0 11 -5 20 -11 20 -5 0 -9 -10 -7 -22 2 -11 -3 -23 -9 -25 -8 -3 -13 5 -13 21 0 14 -5 26 -11 26 -6 0 -9 -12 -7 -27 3 -26 6 -28 57 -31 52 -3 53 -2 47 20 -3 13 -6 33 -6 46 0 15 -6 22 -20 22 -11 0 -20 6 -20 14 0 8 9 18 20 21 11 3 20 11 20 16 0 11 -1 11 -19 0z m-38 -31 c4 -15 0 -20 -14 -20 -18 0 -26 20 -12 33 11 12 21 8 26 -13z"/> <path d="M2030 1501 c0 -6 18 -11 43 -12 l42 -1 -42 -15 c-44 -15 -57 -33 -25 -33 9 0 35 -3 56 -7 28 -4 37 -3 32 5 -4 7 -24 12 -44 13 l-37 1 43 15 c43 15 56 33 25 33 -10 0 -35 3 -55 6 -25 5 -38 3 -38 -5z"/> <path d="M2048 1423 c-22 -6 -33 -40 -19 -57 15 -18 62 -26 83 -15 48 26 -7 87 -64 72z m57 -38 c0 -12 -8 -21 -20 -23 -28 -3 -49 13 -42 33 10 25 62 16 62 -10z"/> <path d="M1000 1368 c0 -4 19 -8 43 -10 l42 -3 -37 -17 c-27 -12 -38 -23 -38 -39 0 -14 5 -19 14 -16 8 3 31 9 50 13 20 3 36 11 36 16 0 5 -8 7 -17 4 -10 -3 -31 -8 -48 -11 -27 -5 -25 -3 12 17 23 13 43 28 43 33 0 6 -22 12 -50 15 -27 3 -50 2 -50 -2z"/> <path d="M2014 1338 c-3 -4 4 -8 15 -8 30 0 26 -27 -4 -34 -14 -4 -25 -11 -25 -16 0 -13 7 -13 30 0 13 7 19 6 24 -5 6 -15 42 -21 49 -7 2 4 7 19 10 33 6 24 3 26 -44 35 -27 6 -52 7 -55 2z m80 -26 c2 -4 1 -14 -4 -21 -10 -17 -31 -5 -23 14 6 16 19 20 27 7z"/> <path d="M1053 1278 c-18 -6 -33 -15 -33 -19 0 -4 19 -2 43 6 l42 15 -37 -31 c-21 -17 -36 -35 -33 -39 6 -9 86 9 100 23 11 10 -23 6 -60 -8 -12 -4 -8 3 13 20 52 43 38 56 -35 33z"/> <path d="M1990 1241 c0 -5 18 -12 40 -16 30 -5 40 -11 40 -25 0 -18 -2 -18 -41 -5 -23 8 -43 15 -44 15 -3 0 -25 -59 -25 -66 0 -2 4 -4 10 -4 5 0 12 11 16 25 3 14 9 25 13 25 16 0 20 -13 11 -31 -6 -11 -6 -20 -1 -24 5 -3 12 4 16 15 3 11 13 20 20 20 11 0 12 -6 5 -25 -5 -13 -6 -26 -1 -29 9 -6 54 124 46 133 -3 3 -10 0 -14 -7 -6 -10 -15 -10 -35 -2 -34 12 -56 13 -56 1z"/> <path d="M1068 1199 c-16 -6 -28 -15 -28 -20 0 -12 1 -12 42 5 34 15 66 7 54 -12 -3 -6 -22 -16 -41 -22 -19 -6 -35 -16 -35 -21 0 -12 3 -12 50 7 35 14 41 20 38 43 -3 30 -34 37 -80 20z"/> <path d="M1132 1053 c2 -10 10 -18 18 -18 8 0 16 8 18 18 2 12 -3 17 -18 17 -15 0 -20 -5 -18 -17z"/> <path d="M1942 1053 c2 -10 10 -18 18 -18 8 0 16 8 18 18 2 12 -3 17 -18 17 -15 0 -20 -5 -18 -17z"/> <path d="M1876 1005 c-9 -13 -16 -27 -16 -31 0 -3 -12 -15 -26 -26 -14 -11 -23 -27 -20 -34 4 -10 -2 -14 -18 -14 -13 0 -29 -7 -36 -15 -9 -11 -5 -22 21 -55 31 -38 33 -39 51 -23 22 20 23 56 3 73 -9 7 -13 15 -10 18 3 3 18 -7 33 -21 l28 -27 24 25 c13 14 20 28 16 32 -4 5 -16 -2 -25 -14 -13 -16 -21 -19 -29 -11 -8 8 -7 15 6 24 9 7 14 16 10 20 -4 4 -14 1 -22 -6 -30 -24 -34 -4 -7 29 l28 34 32 -22 c18 -13 35 -21 38 -17 6 6 -37 45 -50 46 -5 0 -5 9 -2 20 9 28 -9 25 -29 -5z m-49 -142 c11 -17 11 -22 -1 -32 -12 -10 -18 -8 -31 13 -17 25 -12 50 8 43 5 -1 16 -12 24 -24z"/> <path d="M1210 988 c-43 -12 -62 -28 -33 -28 24 0 36 -23 20 -39 -8 -8 -8 -11 0 -11 15 0 74 75 66 84 -7 7 -8 7 -53 -6z m28 -22 c-7 -8 -16 -12 -21 -9 -11 7 2 23 19 23 12 0 12 -2 2 -14z"/> <path d="M1245 935 c-28 -27 -31 -45 -13 -63 15 -15 48 -16 48 -2 0 6 -9 10 -20 10 -27 0 -27 36 0 50 23 12 40 6 40 -16 0 -8 5 -14 10 -14 15 0 12 27 -6 44 -21 22 -31 20 -59 -9z"/> <path d="M1300 878 c-23 -25 -26 -48 -8 -66 15 -15 48 -16 48 -2 0 6 -9 10 -21 10 -26 0 -23 37 4 54 15 9 21 7 33 -8 14 -19 14 -19 14 1 0 19 -17 33 -40 33 -5 0 -18 -10 -30 -22z"/> <path d="M1366 827 c-28 -46 -31 -57 -18 -57 10 0 55 91 48 97 -2 3 -16 -15 -30 -40z"/> <path d="M1391 813 c-20 -42 -21 -76 -1 -43 5 8 21 14 37 15 22 0 29 5 31 26 2 19 -3 28 -21 36 -22 10 -25 8 -46 -34z m52 2 c1 -5 -6 -11 -15 -13 -11 -2 -18 3 -18 13 0 17 30 18 33 0z"/> <path d="M1698 847 c-16 -6 -28 -15 -28 -20 0 -5 6 -7 14 -4 9 4 19 -8 29 -34 8 -21 20 -39 25 -39 6 0 3 18 -6 42 -12 31 -13 43 -4 46 13 4 17 23 5 21 -5 -1 -20 -6 -35 -12z"/> <path d="M1466 794 c-4 -19 -10 -42 -13 -50 -3 -8 -1 -14 5 -14 5 0 15 20 21 44 13 54 13 56 2 56 -5 0 -12 -16 -15 -36z"/> <path d="M1500 818 c0 -4 5 -8 11 -8 8 0 10 -14 6 -45 -8 -56 8 -60 17 -5 4 26 11 40 21 40 30 0 14 18 -20 22 -19 2 -35 0 -35 -4z"/> <path d="M1651 793 c8 -39 -1 -61 -20 -49 -6 4 -13 22 -17 41 -3 19 -10 35 -16 35 -11 0 0 -70 15 -87 5 -7 15 -13 23 -13 18 0 44 28 39 43 -2 7 -6 24 -9 40 -4 15 -10 27 -15 27 -5 0 -5 -16 0 -37z"/> </g> </svg> 